<svg width="351" height="120" viewBox="0 0 351 120" fill="none" xmlns="http://www.w3.org/2000/svg">
<g filter="url(#filter0_ddii_67_28)">
<rect x="30" y="30" width="291" height="60" rx="30" fill="#E8EEFF"/>
<path d="M136.7 49.275H138.425V53.325C138.425 54.625 138.258 55.8917 137.925 57.125C137.608 58.3417 137.15 59.4833 136.55 60.55C135.967 61.6 135.275 62.5333 134.475 63.35C133.692 64.15 132.833 64.7833 131.9 65.25L130.625 63.525C131.475 63.1417 132.267 62.5917 133 61.875C133.733 61.1583 134.375 60.35 134.925 59.45C135.475 58.5333 135.908 57.55 136.225 56.5C136.542 55.45 136.7 54.3917 136.7 53.325V49.275ZM137.05 49.275H138.775V53.325C138.775 54.3583 138.925 55.375 139.225 56.375C139.542 57.375 139.975 58.325 140.525 59.225C141.092 60.1083 141.733 60.8917 142.45 61.575C143.183 62.2417 143.967 62.7667 144.8 63.15L143.55 64.8C142.633 64.3667 141.783 63.7583 141 62.975C140.217 62.1917 139.525 61.2917 138.925 60.275C138.342 59.2583 137.883 58.1583 137.55 56.975C137.217 55.7917 137.05 54.575 137.05 53.325V49.275ZM147.175 47.325H149.25V69.975H147.175V47.325ZM159.323 49.65H161.023V51.475C161.023 52.8583 160.756 54.15 160.223 55.35C159.706 56.5333 158.981 57.5667 158.048 58.45C157.115 59.3167 156.015 59.975 154.748 60.425L153.648 58.825C154.781 58.425 155.773 57.85 156.623 57.1C157.473 56.35 158.131 55.5 158.598 54.55C159.081 53.5833 159.323 52.5583 159.323 51.475V49.65ZM159.698 49.65H161.398V51.475C161.398 52.4583 161.623 53.4083 162.073 54.325C162.523 55.2417 163.156 56.05 163.973 56.75C164.806 57.45 165.773 57.9917 166.873 58.375L165.823 60C164.59 59.55 163.506 58.9083 162.573 58.075C161.656 57.225 160.948 56.2333 160.448 55.1C159.948 53.9667 159.698 52.7583 159.698 51.475V49.65ZM154.273 48.9H166.373V50.6H154.273V48.9ZM169.223 47.325H171.298V60.95H169.223V47.325ZM170.723 53.275H174.623V55.025H170.723V53.275ZM156.598 62.15H171.298V69.95H169.223V63.85H156.598V62.15ZM192.071 47.325H194.121V69.95H192.071V47.325ZM193.646 56.625H197.821V58.375H193.646V56.625ZM176.621 50.95H189.946V52.65H176.621V50.95ZM183.396 54.5C184.463 54.5 185.404 54.725 186.221 55.175C187.054 55.625 187.704 56.2417 188.171 57.025C188.654 57.7917 188.896 58.6833 188.896 59.7C188.896 60.7167 188.654 61.6167 188.171 62.4C187.704 63.1833 187.054 63.8 186.221 64.25C185.404 64.6833 184.463 64.9 183.396 64.9C182.329 64.9 181.379 64.6833 180.546 64.25C179.729 63.8 179.079 63.1833 178.596 62.4C178.113 61.6167 177.871 60.7167 177.871 59.7C177.871 58.6833 178.113 57.7917 178.596 57.025C179.079 56.2417 179.729 55.625 180.546 55.175C181.379 54.725 182.329 54.5 183.396 54.5ZM183.396 56.225C182.713 56.225 182.104 56.375 181.571 56.675C181.038 56.975 180.613 57.3833 180.296 57.9C179.996 58.4167 179.846 59.0167 179.846 59.7C179.846 60.3833 179.996 60.9917 180.296 61.525C180.613 62.0417 181.038 62.45 181.571 62.75C182.104 63.0333 182.713 63.175 183.396 63.175C184.063 63.175 184.663 63.0333 185.196 62.75C185.729 62.45 186.146 62.0417 186.446 61.525C186.763 60.9917 186.921 60.3833 186.921 59.7C186.921 59.0167 186.763 58.4167 186.446 57.9C186.146 57.3833 185.729 56.975 185.196 56.675C184.663 56.375 184.063 56.225 183.396 56.225ZM182.321 47.6H184.396V51.7H182.321V47.6ZM216.219 47.325H218.294V69.95H216.219V47.325ZM209.594 49.775H211.644C211.644 51.4083 211.444 52.9833 211.044 54.5C210.661 56.0167 210.052 57.4583 209.219 58.825C208.386 60.175 207.302 61.4333 205.969 62.6C204.636 63.7667 203.019 64.8083 201.119 65.725L200.019 64.05C202.202 63 204.002 61.775 205.419 60.375C206.836 58.975 207.886 57.4167 208.569 55.7C209.252 53.9667 209.594 52.1 209.594 50.1V49.775ZM201.069 49.775H210.469V51.45H201.069V49.775Z" fill="#7894A8"/>
</g>
<defs>
<filter id="filter0_ddii_67_28" x="0" y="0" width="351" height="120" filterUnits="userSpaceOnUse" color-interpolation-filters="sRGB">
<feFlood flood-opacity="0" result="BackgroundImageFix"/>
<feColorMatrix in="SourceAlpha" type="matrix" values="0 0 0 0 0 0 0 0 0 0 0 0 0 0 0 0 0 0 127 0" result="hardAlpha"/>
<feMorphology radius="7.96791" operator="dilate" in="SourceAlpha" result="effect1_dropShadow_67_28"/>
<feOffset/>
<feGaussianBlur stdDeviation="0.995989"/>
<feComposite in2="hardAlpha" operator="out"/>
<feColorMatrix type="matrix" values="0 0 0 0 1 0 0 0 0 1 0 0 0 0 1 0 0 0 0.1 0"/>
<feBlend mode="normal" in2="BackgroundImageFix" result="effect1_dropShadow_67_28"/>
<feColorMatrix in="SourceAlpha" type="matrix" values="0 0 0 0 0 0 0 0 0 0 0 0 0 0 0 0 0 0 127 0" result="hardAlpha"/>
<feOffset/>
<feGaussianBlur stdDeviation="15"/>
<feComposite in2="hardAlpha" operator="out"/>
<feColorMatrix type="matrix" values="0 0 0 0 1 0 0 0 0 1 0 0 0 0 1 0 0 0 1 0"/>
<feBlend mode="normal" in2="effect1_dropShadow_67_28" result="effect2_dropShadow_67_28"/>
<feBlend mode="normal" in="SourceGraphic" in2="effect2_dropShadow_67_28" result="shape"/>
<feColorMatrix in="SourceAlpha" type="matrix" values="0 0 0 0 0 0 0 0 0 0 0 0 0 0 0 0 0 0 127 0" result="hardAlpha"/>
<feOffset dy="3.98396"/>
<feGaussianBlur stdDeviation="0.995989"/>
<feComposite in2="hardAlpha" operator="arithmetic" k2="-1" k3="1"/>
<feColorMatrix type="matrix" values="0 0 0 0 1 0 0 0 0 1 0 0 0 0 1 0 0 0 0.25 0"/>
<feBlend mode="normal" in2="shape" result="effect3_innerShadow_67_28"/>
<feColorMatrix in="SourceAlpha" type="matrix" values="0 0 0 0 0 0 0 0 0 0 0 0 0 0 0 0 0 0 127 0" result="hardAlpha"/>
<feOffset dy="-7.96791"/>
<feGaussianBlur stdDeviation="1.99198"/>
<feComposite in2="hardAlpha" operator="arithmetic" k2="-1" k3="1"/>
<feColorMatrix type="matrix" values="0 0 0 0 0 0 0 0 0 0 0 0 0 0 0 0 0 0 0.25 0"/>
<feBlend mode="normal" in2="effect3_innerShadow_67_28" result="effect4_innerShadow_67_28"/>
</filter>
</defs>
</svg>
