<svg width="680" height="162" viewBox="0 0 680 162" fill="none" xmlns="http://www.w3.org/2000/svg">
<rect x="0.5" y="0.5" width="679" height="161" rx="33.5" stroke="#9D9D9D"/>
<path d="M37.232 137C36.336 137 35.5733 136.685 34.944 136.056C34.3147 135.427 34 134.665 34 133.77V116.23C34 115.337 34.3147 114.575 34.944 113.944C35.5733 113.315 36.336 113 37.232 113H40V109C40 106.772 40.7767 104.882 42.33 103.33C43.882 101.777 45.772 101 48 101C50.228 101 52.1187 101.777 53.672 103.33C55.2253 104.883 56.0013 106.773 56 109V113H58.77C59.6633 113 60.4253 113.315 61.056 113.944C61.6853 114.573 62 115.336 62 116.232V133.77C62 134.663 61.6853 135.425 61.056 136.056C60.4267 136.685 59.6647 137 58.77 137H37.232ZM37.232 135H58.77C59.1287 135 59.4233 134.885 59.654 134.654C59.8847 134.423 60 134.129 60 133.77V116.23C60 115.871 59.8847 115.577 59.654 115.346C59.4233 115.115 59.1287 115 58.77 115H37.23C36.8713 115 36.5767 115.115 36.346 115.346C36.1153 115.577 36 115.872 36 116.232V133.77C36 134.129 36.1153 134.423 36.346 134.654C36.5767 134.885 36.872 135 37.232 135ZM48 128C48.844 128 49.5547 127.711 50.132 127.132C50.7107 126.555 51 125.844 51 125C51 124.156 50.7107 123.445 50.132 122.868C49.5533 122.291 48.8427 122.001 48 122C47.1573 121.999 46.4467 122.288 45.868 122.868C45.2893 123.445 45 124.156 45 125C45 125.844 45.2893 126.555 45.868 127.132C46.4453 127.711 47.156 128 48 128ZM42 113H54V109C54 107.333 53.4167 105.917 52.25 104.75C51.0833 103.583 49.6667 103 48 103C46.3333 103 44.9167 103.583 43.75 104.75C42.5833 105.917 42 107.333 42 109V113Z" fill="#D9D9D9"/>
<path d="M48 39.7695C46.3507 39.7695 44.938 39.1815 43.762 38.0055C42.586 36.8295 41.9987 35.4175 42 33.7695C42.0013 32.1215 42.5887 30.7082 43.762 29.5295C44.9353 28.3509 46.348 27.7649 48 27.7715C49.652 27.7782 51.0647 28.3649 52.238 29.5315C53.4113 30.6982 53.9987 32.1115 54 33.7715C54.0013 35.4315 53.414 36.8435 52.238 38.0075C51.062 39.1715 49.6493 39.7575 48 39.7695ZM34 52.1555V50.9395C34 50.1142 34.24 49.3422 34.72 48.6235C35.2013 47.9035 35.848 47.3449 36.66 46.9475C38.548 46.0422 40.4373 45.3635 42.328 44.9115C44.2173 44.4582 46.108 44.2315 48 44.2315C49.892 44.2315 51.7833 44.4582 53.674 44.9115C55.5647 45.3649 57.4527 46.0435 59.338 46.9475C60.1513 47.3449 60.798 47.9035 61.278 48.6235C61.7593 49.3422 62 50.1142 62 50.9395V52.1555C62 52.7422 61.8007 53.2355 61.402 53.6355C61.0033 54.0329 60.51 54.2315 59.922 54.2315H36.08C35.492 54.2315 34.9987 54.0322 34.6 53.6335C34.2013 53.2349 34.0013 52.7435 34 52.1555ZM36 52.2315H60V50.9375C60 50.4949 59.8567 50.0782 59.57 49.6875C59.2847 49.2982 58.8893 48.9689 58.384 48.6995C56.7387 47.9022 55.0413 47.2915 53.292 46.8675C51.5427 46.4435 49.7787 46.2315 48 46.2315C46.2213 46.2315 44.4573 46.4435 42.708 46.8675C40.9587 47.2915 39.2613 47.9022 37.616 48.6995C37.1093 48.9689 36.714 49.2982 36.43 49.6875C36.1433 50.0782 36 50.4955 36 50.9395V52.2315ZM48 37.7695C49.1 37.7695 50.042 37.3775 50.826 36.5935C51.61 35.8095 52.0013 34.8675 52 33.7675C51.9987 32.6675 51.6073 31.7262 50.826 30.9435C50.0447 30.1609 49.1027 29.7689 48 29.7675C46.8973 29.7662 45.956 30.1582 45.176 30.9435C44.396 31.7289 44.004 32.6702 44 33.7675C43.996 34.8649 44.388 35.8069 45.176 36.5935C45.964 37.3802 46.9053 37.7715 48 37.7675" fill="#D9D9D9"/>
<rect y="80" width="680" height="1" fill="#D9D9D9"/>
</svg>
