<svg width="137" height="40" viewBox="0 0 137 40" fill="none" xmlns="http://www.w3.org/2000/svg">
<rect y="3.93555" width="31.6154" height="35.4476" rx="10" fill="#65B7FF"/>
<g filter="url(#filter0_d_24_179)">
<path d="M14.7263 29.0598C13.3476 29.0598 12.2476 28.9498 11.4263 28.7298C10.6196 28.5244 10.0403 28.2384 9.68827 27.8718C9.33627 27.5051 9.16027 27.1018 9.16027 26.6618C9.16027 26.3244 9.24827 25.9358 9.42427 25.4958C9.61494 25.0558 9.88627 24.6378 10.2383 24.2418C10.4876 24.5791 10.8176 24.8944 11.2283 25.1878C11.6536 25.4664 12.1156 25.6938 12.6143 25.8698C13.1129 26.0311 13.5969 26.1118 14.0663 26.1118C14.5796 26.1118 15.0416 25.9944 15.4523 25.7598C15.8629 25.5104 16.1343 25.0924 16.2663 24.5058C14.0076 24.2418 12.3869 23.7431 11.4043 23.0098C10.4216 22.2618 9.93027 21.2278 9.93027 19.9078C9.93027 19.0718 10.1283 18.3604 10.5243 17.7738C10.9203 17.1871 11.4483 16.7178 12.1083 16.3658C12.7829 15.9991 13.5456 15.7351 14.3963 15.5738C15.2616 15.3978 16.1563 15.3098 17.0803 15.3098C17.9456 15.3098 18.7156 15.4271 19.3903 15.6618C20.0649 15.8818 20.5929 16.1824 20.9743 16.5638C21.3556 16.9451 21.5463 17.3851 21.5463 17.8838C21.5463 18.5878 21.2896 19.1231 20.7763 19.4898C20.2776 19.8564 19.7056 20.0398 19.0603 20.0398C18.6203 20.0398 18.1583 19.8931 17.6743 19.5998C17.1903 19.3064 16.8016 18.8518 16.5083 18.2358C15.9656 18.3971 15.5329 18.6318 15.2103 18.9398C14.8876 19.2331 14.6016 19.6584 14.3523 20.2158C16.0243 20.4651 17.3516 20.7804 18.3343 21.1618C19.3169 21.5431 20.0209 22.0271 20.4463 22.6138C20.8863 23.1858 21.1063 23.8971 21.1063 24.7478C21.1063 25.4224 20.9523 26.0091 20.6443 26.5078C20.3509 27.0064 19.9623 27.4171 19.4783 27.7398C18.9943 28.0624 18.4663 28.3191 17.8943 28.5098C17.3223 28.7151 16.7576 28.8544 16.2003 28.9278C15.6429 29.0158 15.1516 29.0598 14.7263 29.0598Z" fill="#DBF7FF"/>
</g>
<rect x="8.62244" y="0.103516" width="14.3706" height="7.18532" rx="3.59266" fill="#E0F8FF"/>
<path d="M59.1996 31.1809C57.8796 31.1809 56.7942 31.0855 55.9436 30.8949C55.0929 30.7189 54.4329 30.4695 53.9636 30.1469C53.4942 29.8242 53.1642 29.4575 52.9736 29.0469C52.7976 28.6215 52.7096 28.1742 52.7096 27.7049C52.7096 27.2649 52.7756 26.8249 52.9076 26.3849C53.0542 25.9449 53.3036 25.4902 53.6556 25.0209C53.8609 25.4462 54.1982 25.8569 54.6676 26.2529C55.1369 26.6489 55.6649 26.9715 56.2516 27.2209C56.8529 27.4702 57.4396 27.5949 58.0116 27.5949C58.7742 27.5949 59.4049 27.4775 59.9036 27.2429C60.4169 26.9935 60.7836 26.6122 61.0036 26.0989C58.5102 25.7615 56.6402 25.0722 55.3936 24.0309C54.1469 22.9749 53.5236 21.7355 53.5236 20.3129C53.5236 19.4769 53.6922 18.7435 54.0296 18.1129C54.3816 17.4822 54.8436 16.9542 55.4156 16.5289C55.9876 16.0889 56.6109 15.7369 57.2856 15.4729C57.9602 15.1942 58.6276 14.9962 59.2876 14.8789C59.9476 14.7469 60.5342 14.6809 61.0476 14.6809C62.9102 14.6809 64.3402 14.9009 65.3376 15.3409C66.3496 15.7662 66.8556 16.5215 66.8556 17.6069C66.8556 18.2375 66.7089 18.7655 66.4156 19.1909C66.1369 19.6162 65.7629 19.9389 65.2936 20.1589C64.8389 20.3642 64.3402 20.4669 63.7976 20.4669C63.1522 20.4669 62.5216 20.2835 61.9056 19.9169C61.2896 19.5355 60.8569 19.0075 60.6076 18.3329C60.0942 18.3329 59.5882 18.5089 59.0896 18.8609C58.5909 19.1982 58.2682 19.6675 58.1216 20.2689C60.0722 20.7382 61.6416 21.2589 62.8296 21.8309C64.0322 22.4029 64.9049 23.0482 65.4476 23.7669C65.9902 24.4855 66.2616 25.3069 66.2616 26.2309C66.2616 27.3015 65.9462 28.2035 65.3156 28.9369C64.6849 29.6702 63.8342 30.2275 62.7636 30.6089C61.7076 30.9902 60.5196 31.1809 59.1996 31.1809ZM71.9921 31.1809C71.0827 31.1809 70.3714 31.0195 69.8581 30.6969C69.3594 30.3889 69.0074 29.9709 68.8021 29.4429C68.6114 28.9002 68.5161 28.2915 68.5161 27.6169C68.5161 26.8395 68.5967 26.0255 68.7581 25.1749C68.9194 24.3095 69.0807 23.4735 69.2421 22.6669C69.4034 21.8455 69.4841 21.1269 69.4841 20.5109C69.4841 19.6015 69.3301 18.9342 69.0221 18.5089C69.6234 18.1862 70.2467 17.9295 70.8921 17.7389C71.5521 17.5335 72.0801 17.4309 72.4761 17.4309C73.0774 17.4309 73.5101 17.5555 73.7741 17.8049C74.0527 18.0395 74.1921 18.4355 74.1921 18.9929C74.1921 19.3009 74.1481 19.7262 74.0601 20.2689C73.9721 20.7969 73.8621 21.3762 73.7301 22.0069C73.5981 22.6375 73.4587 23.2755 73.3121 23.9209C73.1801 24.5515 73.0701 25.1235 72.9821 25.6369C72.8941 26.1502 72.8501 26.5535 72.8501 26.8469C72.8501 27.3895 72.9894 27.8002 73.2681 28.0789C73.5614 28.3575 73.9134 28.4969 74.3241 28.4969C74.7934 28.4969 75.2847 28.3209 75.7981 27.9689C76.3114 27.6169 76.7367 27.1035 77.0741 26.4289C77.1327 26.1062 77.2061 25.7029 77.2941 25.2189C77.3967 24.7349 77.5067 24.2215 77.6241 23.6789C77.7561 23.1215 77.8734 22.5935 77.9761 22.0949C78.0934 21.5815 78.1961 21.1489 78.2841 20.7969L76.9641 19.0369C77.5947 18.5822 78.2694 18.2009 78.9881 17.8929C79.7067 17.5849 80.4401 17.4309 81.1881 17.4309C81.8481 17.4309 82.3174 17.5555 82.5961 17.8049C82.8894 18.0395 83.0361 18.4355 83.0361 18.9929C83.0361 19.3009 82.9774 19.7262 82.8601 20.2689C82.7574 20.8115 82.6254 21.4202 82.4641 22.0949C82.3174 22.7549 82.1634 23.4442 82.0021 24.1629C81.8407 24.8815 81.7014 25.5855 81.5841 26.2749C81.4814 26.9495 81.4301 27.5582 81.4301 28.1009C81.4301 28.5409 81.4814 28.9369 81.5841 29.2889C81.7014 29.6262 81.8774 29.8975 82.1121 30.1029C81.2907 30.8215 80.4181 31.1809 79.4941 31.1809C78.5554 31.1809 77.9027 30.9682 77.5361 30.5429C77.1694 30.1175 76.9861 29.6115 76.9861 29.0249L76.7661 28.9149C76.2821 29.6335 75.6074 30.1909 74.7421 30.5869C73.8767 30.9829 72.9601 31.1809 71.9921 31.1809ZM87.5828 31.1809C86.6882 31.1809 86.0502 30.9462 85.6688 30.4769C85.2875 30.0075 85.0968 29.3329 85.0968 28.4529C85.0968 28.1449 85.1408 27.6755 85.2288 27.0449C85.3168 26.3995 85.4268 25.6882 85.5588 24.9109C85.7055 24.1189 85.8595 23.3269 86.0208 22.5349C86.1822 21.7429 86.3362 21.0389 86.4828 20.4229L85.3388 18.6629C86.1015 18.3255 86.8055 18.0395 87.4508 17.8049C88.1108 17.5555 88.6975 17.4309 89.2108 17.4309C89.5922 17.4309 89.8708 17.5629 90.0468 17.8269C90.2228 18.0909 90.3108 18.4282 90.3108 18.8389C90.3108 19.3082 90.2302 19.8362 90.0688 20.4229C89.9075 20.9949 89.7462 21.5375 89.5848 22.0509L89.8048 22.1609C90.3182 20.6502 90.8975 19.4842 91.5428 18.6629C92.2028 17.8415 92.9362 17.4309 93.7428 17.4309C94.2708 17.4309 94.6962 17.5482 95.0188 17.7829C95.3415 18.0029 95.5762 18.2815 95.7228 18.6189C95.8842 18.9415 95.9648 19.2569 95.9648 19.5649C95.9648 20.0489 95.8402 20.5182 95.5908 20.9729C95.3562 21.4129 94.9748 21.7795 94.4468 22.0729C93.9188 22.3515 93.2222 22.4909 92.3568 22.4909C92.0195 22.4909 91.6895 22.5642 91.3668 22.7109C91.0442 22.8575 90.7508 23.1362 90.4868 23.5469C90.2228 23.9429 90.0102 24.5075 89.8488 25.2409C89.7022 25.9742 89.6288 26.9275 89.6288 28.1009C89.6288 29.0102 89.7828 29.6775 90.0908 30.1029C89.1815 30.8215 88.3455 31.1809 87.5828 31.1809ZM101.735 31.1809C100.269 31.1809 99.2127 30.9535 98.5674 30.4989C97.9367 30.0295 97.6214 29.2669 97.6214 28.2109C97.6214 27.2429 97.636 26.2089 97.6654 25.1089C97.6947 23.9942 97.7094 23.0115 97.7094 22.1609C97.7094 21.1635 97.592 20.3715 97.3574 19.7849C97.1374 19.1835 96.8587 18.7142 96.5214 18.3769C97.284 17.7462 98.12 17.4309 99.0294 17.4309C99.8507 17.4309 100.474 17.6729 100.899 18.1569C101.325 18.6262 101.611 19.2715 101.757 20.0929C101.919 20.9142 101.999 21.8309 101.999 22.8429C101.999 23.3855 101.992 24.0015 101.977 24.6909C101.977 25.3655 101.97 26.0402 101.955 26.7149C101.941 27.3749 101.919 27.9689 101.889 28.4969H102.637C102.96 27.8075 103.312 27.0522 103.693 26.2309C104.075 25.3949 104.441 24.5515 104.793 23.7009C105.145 22.8355 105.431 22.0289 105.651 21.2809C105.871 20.5182 105.981 19.8802 105.981 19.3669C105.981 19.1615 105.959 18.9782 105.915 18.8169C105.886 18.6555 105.842 18.5089 105.783 18.3769C106.341 18.0542 106.869 17.8195 107.367 17.6729C107.881 17.5115 108.335 17.4309 108.731 17.4309C109.362 17.4309 109.802 17.6215 110.051 18.0029C110.315 18.3842 110.447 18.8829 110.447 19.4989C110.447 20.0269 110.33 20.6575 110.095 21.3909C109.875 22.1242 109.597 22.8942 109.259 23.7009C108.922 24.4929 108.585 25.2555 108.247 25.9889C107.91 26.7075 107.639 27.3235 107.433 27.8369L107.719 29.1129C107.323 29.4649 106.795 29.8022 106.135 30.1249C105.49 30.4329 104.779 30.6822 104.001 30.8729C103.239 31.0782 102.483 31.1809 101.735 31.1809ZM115.026 31.1809C114.131 31.1809 113.493 30.9022 113.112 30.3449C112.731 29.7875 112.54 28.9369 112.54 27.7929C112.54 27.4702 112.577 26.9935 112.65 26.3629C112.738 25.7322 112.848 25.0135 112.98 24.2069C113.112 23.4002 113.259 22.5642 113.42 21.6989C113.581 20.8189 113.735 19.9682 113.882 19.1469C114.029 18.3255 114.161 17.5922 114.278 16.9469L113.046 15.1869C113.823 14.7322 114.564 14.3509 115.268 14.0429C115.972 13.7349 116.676 13.5809 117.38 13.5809C117.996 13.5809 118.421 13.7055 118.656 13.9549C118.905 14.1895 119.03 14.5855 119.03 15.1429C119.03 15.6562 118.964 16.3015 118.832 17.0789C118.7 17.8415 118.539 18.6775 118.348 19.5869C118.157 20.4815 117.959 21.4055 117.754 22.3589C117.563 23.3122 117.402 24.2289 117.27 25.1089C117.138 25.9889 117.072 26.7882 117.072 27.5069C117.072 28.0789 117.123 28.5922 117.226 29.0469C117.343 29.4869 117.519 29.8389 117.754 30.1029C116.727 30.8215 115.818 31.1809 115.026 31.1809ZM123.975 35.8009C122.963 35.8009 122.112 35.5809 121.423 35.1409C120.734 34.7009 120.389 34.0849 120.389 33.2929C120.389 32.9702 120.455 32.6255 120.587 32.2589C120.719 31.8922 120.924 31.5035 121.203 31.0929C121.54 31.5769 121.944 31.9435 122.413 32.1929C122.882 32.4569 123.359 32.5889 123.843 32.5889C124.415 32.5889 124.965 32.3982 125.493 32.0169C126.021 31.6355 126.446 31.0269 126.769 30.1909C126.402 30.3229 126.058 30.4182 125.735 30.4769C125.412 30.5355 125.104 30.5649 124.811 30.5649C124.048 30.5649 123.432 30.3669 122.963 29.9709C122.494 29.5602 122.222 28.9735 122.149 28.2109C122.046 27.2429 121.98 26.2382 121.951 25.1969C121.922 24.1555 121.863 23.2095 121.775 22.3589C121.672 21.3615 121.46 20.5329 121.137 19.8729C120.814 19.2129 120.44 18.7142 120.015 18.3769C120.367 18.0542 120.734 17.8195 121.115 17.6729C121.511 17.5115 122.01 17.4309 122.611 17.4309C123.344 17.4309 123.938 17.6509 124.393 18.0909C124.862 18.5309 125.222 19.1542 125.471 19.9609C125.72 20.7529 125.889 21.6842 125.977 22.7549C126.08 23.8109 126.131 24.9622 126.131 26.2089C126.131 26.3849 126.124 26.6562 126.109 27.0229C126.109 27.3895 126.094 27.7562 126.065 28.1229H127.341C127.576 27.4775 127.825 26.7882 128.089 26.0549C128.353 25.3215 128.595 24.5809 128.815 23.8329C129.05 23.0702 129.24 22.3442 129.387 21.6549C129.534 20.9509 129.607 20.3275 129.607 19.7849C129.607 19.4622 129.57 19.1909 129.497 18.9709C129.438 18.7509 129.365 18.5529 129.277 18.3769C129.79 18.0542 130.296 17.8195 130.795 17.6729C131.294 17.5115 131.741 17.4309 132.137 17.4309C132.812 17.4309 133.303 17.6582 133.611 18.1129C133.934 18.5675 134.095 19.1615 134.095 19.8949C134.095 20.4375 134.014 21.0682 133.853 21.7869C133.692 22.4909 133.486 23.2242 133.237 23.9869C133.002 24.7349 132.76 25.4462 132.511 26.1209C132.276 26.7955 132.078 27.3675 131.917 27.8369C131.213 29.8609 130.421 31.4522 129.541 32.6109C128.676 33.7695 127.766 34.5909 126.813 35.0749C125.874 35.5589 124.928 35.8009 123.975 35.8009Z" fill="#6AB9FF"/>
<defs>
<filter id="filter0_d_24_179" x="5.16028" y="15.3105" width="20.386" height="21.75" filterUnits="userSpaceOnUse" color-interpolation-filters="sRGB">
<feFlood flood-opacity="0" result="BackgroundImageFix"/>
<feColorMatrix in="SourceAlpha" type="matrix" values="0 0 0 0 0 0 0 0 0 0 0 0 0 0 0 0 0 0 127 0" result="hardAlpha"/>
<feOffset dy="4"/>
<feGaussianBlur stdDeviation="2"/>
<feComposite in2="hardAlpha" operator="out"/>
<feColorMatrix type="matrix" values="0 0 0 0 0 0 0 0 0 0 0 0 0 0 0 0 0 0 0.25 0"/>
<feBlend mode="normal" in2="BackgroundImageFix" result="effect1_dropShadow_24_179"/>
<feBlend mode="normal" in="SourceGraphic" in2="effect1_dropShadow_24_179" result="shape"/>
</filter>
</defs>
</svg>
