<svg width="66" height="82" viewBox="0 0 66 82" fill="none" xmlns="http://www.w3.org/2000/svg">
<rect y="8" width="66" height="74" rx="10" fill="#65B7FF"/>
<g filter="url(#filter0_d_34_10)">
<path d="M31.115 62.375C27.6683 62.375 24.9183 62.1 22.865 61.55C20.8483 61.0367 19.4 60.3217 18.52 59.405C17.64 58.4883 17.2 57.48 17.2 56.38C17.2 55.5367 17.42 54.565 17.86 53.465C18.3367 52.365 19.015 51.32 19.895 50.33C20.5183 51.1733 21.3433 51.9617 22.37 52.695C23.4333 53.3917 24.5883 53.96 25.835 54.4C27.0817 54.8033 28.2917 55.005 29.465 55.005C30.7483 55.005 31.9033 54.7117 32.93 54.125C33.9567 53.5017 34.635 52.4567 34.965 50.99C29.3183 50.33 25.2667 49.0833 22.81 47.25C20.3533 45.38 19.125 42.795 19.125 39.495C19.125 37.405 19.62 35.6267 20.61 34.16C21.6 32.6933 22.92 31.52 24.57 30.64C26.2567 29.7233 28.1633 29.0633 30.29 28.66C32.4533 28.22 34.69 28 37 28C39.1633 28 41.0883 28.2933 42.775 28.88C44.4617 29.43 45.7817 30.1817 46.735 31.135C47.6883 32.0883 48.165 33.1883 48.165 34.435C48.165 36.195 47.5233 37.5333 46.24 38.45C44.9933 39.3667 43.5633 39.825 41.95 39.825C40.85 39.825 39.695 39.4583 38.485 38.725C37.275 37.9917 36.3033 36.855 35.57 35.315C34.2133 35.7183 33.1317 36.305 32.325 37.075C31.5183 37.8083 30.8033 38.8717 30.18 40.265C34.36 40.8883 37.6783 41.6767 40.135 42.63C42.5917 43.5833 44.3517 44.7933 45.415 46.26C46.515 47.69 47.065 49.4683 47.065 51.595C47.065 53.2817 46.68 54.7483 45.91 55.995C45.1767 57.2417 44.205 58.2683 42.995 59.075C41.785 59.8817 40.465 60.5233 39.035 61C37.605 61.5133 36.1933 61.8617 34.8 62.045C33.4067 62.265 32.1783 62.375 31.115 62.375Z" fill="#DBF7FF"/>
</g>
<rect x="18" width="30" height="15" rx="7.5" fill="#E0F8FF"/>
<defs>
<filter id="filter0_d_34_10" x="13.2002" y="28" width="38.9648" height="42.375" filterUnits="userSpaceOnUse" color-interpolation-filters="sRGB">
<feFlood flood-opacity="0" result="BackgroundImageFix"/>
<feColorMatrix in="SourceAlpha" type="matrix" values="0 0 0 0 0 0 0 0 0 0 0 0 0 0 0 0 0 0 127 0" result="hardAlpha"/>
<feOffset dy="4"/>
<feGaussianBlur stdDeviation="2"/>
<feComposite in2="hardAlpha" operator="out"/>
<feColorMatrix type="matrix" values="0 0 0 0 0 0 0 0 0 0 0 0 0 0 0 0 0 0 0.25 0"/>
<feBlend mode="normal" in2="BackgroundImageFix" result="effect1_dropShadow_34_10"/>
<feBlend mode="normal" in="SourceGraphic" in2="effect1_dropShadow_34_10" result="shape"/>
</filter>
</defs>
</svg>
