<svg width="264" height="117" viewBox="0 0 264 117" fill="none" xmlns="http://www.w3.org/2000/svg">
<g filter="url(#filter0_ddii_53_2)">
<rect x="30" y="30" width="204" height="57" rx="28.5" fill="#E8EEFF"/>
<path d="M89.452 49.194H91.261V50.247C91.261 51.633 90.973 52.92 90.397 54.108C89.839 55.296 89.047 56.322 88.021 57.186C86.995 58.05 85.798 58.707 84.43 59.157L83.35 57.402C84.556 57.024 85.618 56.484 86.536 55.782C87.454 55.062 88.165 54.225 88.669 53.271C89.191 52.317 89.452 51.309 89.452 50.247V49.194ZM89.83 49.194H91.666V50.247C91.666 51.219 91.909 52.155 92.395 53.055C92.899 53.937 93.601 54.72 94.501 55.404C95.401 56.07 96.445 56.583 97.633 56.943L96.58 58.698C95.23 58.266 94.042 57.636 93.016 56.808C92.008 55.98 91.225 55.008 90.667 53.892C90.109 52.758 89.83 51.543 89.83 50.247V49.194ZM84.025 48.033H97.066V49.842H84.025V48.033ZM89.452 45.063H91.693V48.762H89.452V45.063ZM100.063 45.171H102.304V59.616H100.063V45.171ZM101.683 51.354H105.895V53.217H101.683V51.354ZM86.968 60.777H102.304V69.282H86.968V60.777ZM100.09 62.559H89.155V67.446H100.09V62.559ZM119.177 50.625H126.575V52.461H119.177V50.625ZM119.177 58.347H126.575V60.183H119.177V58.347ZM114.695 47.061C115.883 47.061 116.936 47.412 117.854 48.114C118.772 48.798 119.483 49.779 119.987 51.057C120.509 52.335 120.77 53.838 120.77 55.566C120.77 57.294 120.509 58.797 119.987 60.075C119.483 61.353 118.772 62.343 117.854 63.045C116.936 63.747 115.883 64.098 114.695 64.098C113.525 64.098 112.472 63.747 111.536 63.045C110.618 62.343 109.898 61.353 109.376 60.075C108.872 58.797 108.62 57.294 108.62 55.566C108.62 53.838 108.872 52.335 109.376 51.057C109.898 49.779 110.618 48.798 111.536 48.114C112.472 47.412 113.525 47.061 114.695 47.061ZM114.695 49.059C113.921 49.059 113.237 49.329 112.643 49.869C112.049 50.391 111.581 51.147 111.239 52.137C110.915 53.109 110.753 54.252 110.753 55.566C110.753 56.88 110.915 58.032 111.239 59.022C111.581 59.994 112.049 60.75 112.643 61.29C113.237 61.83 113.921 62.1 114.695 62.1C115.487 62.1 116.18 61.83 116.774 61.29C117.368 60.75 117.827 59.994 118.151 59.022C118.493 58.032 118.664 56.88 118.664 55.566C118.664 54.252 118.493 53.109 118.151 52.137C117.827 51.147 117.368 50.391 116.774 49.869C116.18 49.329 115.487 49.059 114.695 49.059ZM126.062 45.171H128.276V69.633H126.062V45.171ZM149.577 45.171H151.791V69.606H149.577V45.171ZM151.278 55.215H155.787V57.105H151.278V55.215ZM132.891 49.086H147.282V50.922H132.891V49.086ZM140.208 52.92C141.36 52.92 142.377 53.163 143.259 53.649C144.159 54.135 144.861 54.801 145.365 55.647C145.887 56.475 146.148 57.438 146.148 58.536C146.148 59.634 145.887 60.606 145.365 61.452C144.861 62.298 144.159 62.964 143.259 63.45C142.377 63.918 141.36 64.152 140.208 64.152C139.056 64.152 138.03 63.918 137.13 63.45C136.248 62.964 135.546 62.298 135.024 61.452C134.502 60.606 134.241 59.634 134.241 58.536C134.241 57.438 134.502 56.475 135.024 55.647C135.546 54.801 136.248 54.135 137.13 53.649C138.03 53.163 139.056 52.92 140.208 52.92ZM140.208 54.783C139.47 54.783 138.813 54.945 138.237 55.269C137.661 55.593 137.202 56.034 136.86 56.592C136.536 57.15 136.374 57.798 136.374 58.536C136.374 59.274 136.536 59.931 136.86 60.507C137.202 61.065 137.661 61.506 138.237 61.83C138.813 62.136 139.47 62.289 140.208 62.289C140.928 62.289 141.576 62.136 142.152 61.83C142.728 61.506 143.178 61.065 143.502 60.507C143.844 59.931 144.015 59.274 144.015 58.536C144.015 57.798 143.844 57.15 143.502 56.592C143.178 56.034 142.728 55.593 142.152 55.269C141.576 54.945 140.928 54.783 140.208 54.783ZM139.047 45.468H141.288V49.896H139.047V45.468ZM175.657 45.171H177.898V69.606H175.657V45.171ZM168.502 47.817H170.716C170.716 49.581 170.5 51.282 170.068 52.92C169.654 54.558 168.997 56.115 168.097 57.591C167.197 59.049 166.027 60.408 164.587 61.668C163.147 62.928 161.401 64.053 159.349 65.043L158.161 63.234C160.519 62.1 162.463 60.777 163.993 59.265C165.523 57.753 166.657 56.07 167.395 54.216C168.133 52.344 168.502 50.328 168.502 48.168V47.817ZM159.295 47.817H169.447V49.626H159.295V47.817Z" fill="#455971"/>
</g>
<defs>
<filter id="filter0_ddii_53_2" x="0" y="0" width="264" height="117" filterUnits="userSpaceOnUse" color-interpolation-filters="sRGB">
<feFlood flood-opacity="0" result="BackgroundImageFix"/>
<feColorMatrix in="SourceAlpha" type="matrix" values="0 0 0 0 0 0 0 0 0 0 0 0 0 0 0 0 0 0 127 0" result="hardAlpha"/>
<feMorphology radius="7.96791" operator="dilate" in="SourceAlpha" result="effect1_dropShadow_53_2"/>
<feOffset/>
<feGaussianBlur stdDeviation="0.995989"/>
<feComposite in2="hardAlpha" operator="out"/>
<feColorMatrix type="matrix" values="0 0 0 0 0.686275 0 0 0 0 0.772549 0 0 0 0 0.847059 0 0 0 0.1 0"/>
<feBlend mode="normal" in2="BackgroundImageFix" result="effect1_dropShadow_53_2"/>
<feColorMatrix in="SourceAlpha" type="matrix" values="0 0 0 0 0 0 0 0 0 0 0 0 0 0 0 0 0 0 127 0" result="hardAlpha"/>
<feOffset/>
<feGaussianBlur stdDeviation="15"/>
<feComposite in2="hardAlpha" operator="out"/>
<feColorMatrix type="matrix" values="0 0 0 0 0.6875 0 0 0 0 0.771684 0 0 0 0 0.846154 0 0 0 1 0"/>
<feBlend mode="normal" in2="effect1_dropShadow_53_2" result="effect2_dropShadow_53_2"/>
<feBlend mode="normal" in="SourceGraphic" in2="effect2_dropShadow_53_2" result="shape"/>
<feColorMatrix in="SourceAlpha" type="matrix" values="0 0 0 0 0 0 0 0 0 0 0 0 0 0 0 0 0 0 127 0" result="hardAlpha"/>
<feOffset dy="3.98396"/>
<feGaussianBlur stdDeviation="0.995989"/>
<feComposite in2="hardAlpha" operator="arithmetic" k2="-1" k3="1"/>
<feColorMatrix type="matrix" values="0 0 0 0 0.686275 0 0 0 0 0.772549 0 0 0 0 0.847059 0 0 0 0.25 0"/>
<feBlend mode="normal" in2="shape" result="effect3_innerShadow_53_2"/>
<feColorMatrix in="SourceAlpha" type="matrix" values="0 0 0 0 0 0 0 0 0 0 0 0 0 0 0 0 0 0 127 0" result="hardAlpha"/>
<feOffset dy="-7.96791"/>
<feGaussianBlur stdDeviation="1.99198"/>
<feComposite in2="hardAlpha" operator="arithmetic" k2="-1" k3="1"/>
<feColorMatrix type="matrix" values="0 0 0 0 0 0 0 0 0 0 0 0 0 0 0 0 0 0 0.25 0"/>
<feBlend mode="normal" in2="effect3_innerShadow_53_2" result="effect4_innerShadow_53_2"/>
</filter>
</defs>
</svg>
