<svg width="223" height="62" viewBox="0 0 223 62" fill="none" xmlns="http://www.w3.org/2000/svg">
<path d="M17.8 48.5C14.2 48.5 11.24 48.24 8.92 47.72C6.6 47.24 4.8 46.56 3.52 45.68C2.24 44.8 1.34 43.8 0.82 42.68C0.34 41.52 0.1 40.3 0.1 39.02C0.1 37.82 0.28 36.62 0.64 35.42C1.04 34.22 1.72 32.98 2.68 31.7C3.24 32.86 4.16 33.98 5.44 35.06C6.72 36.14 8.16 37.02 9.76 37.7C11.4 38.38 13 38.72 14.56 38.72C16.64 38.72 18.36 38.4 19.72 37.76C21.12 37.08 22.12 36.04 22.72 34.64C15.92 33.72 10.82 31.84 7.42 29C4.02 26.12 2.32 22.74 2.32 18.86C2.32 16.58 2.78 14.58 3.7 12.86C4.66 11.14 5.92 9.7 7.48 8.54C9.04 7.34 10.74 6.38 12.58 5.66C14.42 4.9 16.24 4.36 18.04 4.04C19.84 3.68 21.44 3.5 22.84 3.5C27.92 3.5 31.82 4.1 34.54 5.3C37.3 6.46 38.68 8.52 38.68 11.48C38.68 13.2 38.28 14.64 37.48 15.8C36.72 16.96 35.7 17.84 34.42 18.44C33.18 19 31.82 19.28 30.34 19.28C28.58 19.28 26.86 18.78 25.18 17.78C23.5 16.74 22.32 15.3 21.64 13.46C20.24 13.46 18.86 13.94 17.5 14.9C16.14 15.82 15.26 17.1 14.86 18.74C20.18 20.02 24.46 21.44 27.7 23C30.98 24.56 33.36 26.32 34.84 28.28C36.32 30.24 37.06 32.48 37.06 35C37.06 37.92 36.2 40.38 34.48 42.38C32.76 44.38 30.44 45.9 27.52 46.94C24.64 47.98 21.4 48.5 17.8 48.5ZM52.6886 48.5C50.2086 48.5 48.2686 48.06 46.8686 47.18C45.5086 46.34 44.5486 45.2 43.9886 43.76C43.4686 42.28 43.2086 40.62 43.2086 38.78C43.2086 36.66 43.4286 34.44 43.8686 32.12C44.3086 29.76 44.7486 27.48 45.1886 25.28C45.6286 23.04 45.8486 21.08 45.8486 19.4C45.8486 16.92 45.4286 15.1 44.5886 13.94C46.2286 13.06 47.9286 12.36 49.6886 11.84C51.4886 11.28 52.9286 11 54.0086 11C55.6486 11 56.8286 11.34 57.5486 12.02C58.3086 12.66 58.6886 13.74 58.6886 15.26C58.6886 16.1 58.5686 17.26 58.3286 18.74C58.0886 20.18 57.7886 21.76 57.4286 23.48C57.0686 25.2 56.6886 26.94 56.2886 28.7C55.9286 30.42 55.6286 31.98 55.3886 33.38C55.1486 34.78 55.0286 35.88 55.0286 36.68C55.0286 38.16 55.4086 39.28 56.1686 40.04C56.9686 40.8 57.9286 41.18 59.0486 41.18C60.3286 41.18 61.6686 40.7 63.0686 39.74C64.4686 38.78 65.6286 37.38 66.5486 35.54C66.7086 34.66 66.9086 33.56 67.1486 32.24C67.4286 30.92 67.7286 29.52 68.0486 28.04C68.4086 26.52 68.7286 25.08 69.0086 23.72C69.3286 22.32 69.6086 21.14 69.8486 20.18L66.2486 15.38C67.9686 14.14 69.8086 13.1 71.7686 12.26C73.7286 11.42 75.7286 11 77.7686 11C79.5686 11 80.8486 11.34 81.6086 12.02C82.4086 12.66 82.8086 13.74 82.8086 15.26C82.8086 16.1 82.6486 17.26 82.3286 18.74C82.0486 20.22 81.6886 21.88 81.2486 23.72C80.8486 25.52 80.4286 27.4 79.9886 29.36C79.5486 31.32 79.1686 33.24 78.8486 35.12C78.5686 36.96 78.4286 38.62 78.4286 40.1C78.4286 41.3 78.5686 42.38 78.8486 43.34C79.1686 44.26 79.6486 45 80.2886 45.56C78.0486 47.52 75.6686 48.5 73.1486 48.5C70.5886 48.5 68.8086 47.92 67.8086 46.76C66.8086 45.6 66.3086 44.22 66.3086 42.62L65.7086 42.32C64.3886 44.28 62.5486 45.8 60.1886 46.88C57.8286 47.96 55.3286 48.5 52.6886 48.5ZM95.2089 48.5C92.7689 48.5 91.0289 47.86 89.9889 46.58C88.9489 45.3 88.4289 43.46 88.4289 41.06C88.4289 40.22 88.5489 38.94 88.7889 37.22C89.0289 35.46 89.3289 33.52 89.6889 31.4C90.0889 29.24 90.5089 27.08 90.9489 24.92C91.3889 22.76 91.8089 20.84 92.2089 19.16L89.0889 14.36C91.1689 13.44 93.0889 12.66 94.8489 12.02C96.6489 11.34 98.2489 11 99.6489 11C100.689 11 101.449 11.36 101.929 12.08C102.409 12.8 102.649 13.72 102.649 14.84C102.649 16.12 102.429 17.56 101.989 19.16C101.549 20.72 101.109 22.2 100.669 23.6L101.269 23.9C102.669 19.78 104.249 16.6 106.009 14.36C107.809 12.12 109.809 11 112.009 11C113.449 11 114.609 11.32 115.489 11.96C116.369 12.56 117.009 13.32 117.409 14.24C117.849 15.12 118.069 15.98 118.069 16.82C118.069 18.14 117.729 19.42 117.049 20.66C116.409 21.86 115.369 22.86 113.929 23.66C112.489 24.42 110.589 24.8 108.229 24.8C107.309 24.8 106.409 25 105.529 25.4C104.649 25.8 103.849 26.56 103.129 27.68C102.409 28.76 101.829 30.3 101.389 32.3C100.989 34.3 100.789 36.9 100.789 40.1C100.789 42.58 101.209 44.4 102.049 45.56C99.5689 47.52 97.2889 48.5 95.2089 48.5ZM133.807 48.5C129.807 48.5 126.927 47.88 125.167 46.64C123.447 45.36 122.587 43.28 122.587 40.4C122.587 37.76 122.627 34.94 122.707 31.94C122.787 28.9 122.827 26.22 122.827 23.9C122.827 21.18 122.507 19.02 121.867 17.42C121.267 15.78 120.507 14.5 119.587 13.58C121.667 11.86 123.947 11 126.427 11C128.667 11 130.367 11.66 131.527 12.98C132.687 14.26 133.467 16.02 133.867 18.26C134.307 20.5 134.527 23 134.527 25.76C134.527 27.24 134.507 28.92 134.467 30.8C134.467 32.64 134.447 34.48 134.407 36.32C134.367 38.12 134.307 39.74 134.227 41.18H136.267C137.147 39.3 138.107 37.24 139.147 35C140.187 32.72 141.187 30.42 142.147 28.1C143.107 25.74 143.887 23.54 144.487 21.5C145.087 19.42 145.387 17.68 145.387 16.28C145.387 15.72 145.327 15.22 145.207 14.78C145.127 14.34 145.007 13.94 144.847 13.58C146.367 12.7 147.807 12.06 149.167 11.66C150.567 11.22 151.807 11 152.887 11C154.607 11 155.807 11.52 156.487 12.56C157.207 13.6 157.567 14.96 157.567 16.64C157.567 18.08 157.247 19.8 156.607 21.8C156.007 23.8 155.247 25.9 154.327 28.1C153.407 30.26 152.487 32.34 151.567 34.34C150.647 36.3 149.907 37.98 149.347 39.38L150.127 42.86C149.047 43.82 147.607 44.74 145.807 45.62C144.047 46.46 142.107 47.14 139.987 47.66C137.907 48.22 135.847 48.5 133.807 48.5ZM170.054 48.5C167.614 48.5 165.874 47.74 164.834 46.22C163.794 44.7 163.274 42.38 163.274 39.26C163.274 38.38 163.374 37.08 163.574 35.36C163.814 33.64 164.114 31.68 164.474 29.48C164.834 27.28 165.234 25 165.674 22.64C166.114 20.24 166.534 17.92 166.934 15.68C167.334 13.44 167.694 11.44 168.014 9.68L164.654 4.88C166.774 3.64 168.794 2.6 170.714 1.76C172.634 0.919998 174.554 0.499998 176.474 0.499998C178.154 0.499998 179.314 0.839998 179.954 1.52C180.634 2.16 180.974 3.24 180.974 4.76C180.974 6.16 180.794 7.92 180.434 10.04C180.074 12.12 179.634 14.4 179.114 16.88C178.594 19.32 178.054 21.84 177.494 24.44C176.974 27.04 176.534 29.54 176.174 31.94C175.814 34.34 175.634 36.52 175.634 38.48C175.634 40.04 175.774 41.44 176.054 42.68C176.374 43.88 176.854 44.84 177.494 45.56C174.694 47.52 172.214 48.5 170.054 48.5ZM194.46 61.1C191.7 61.1 189.38 60.5 187.5 59.3C185.62 58.1 184.68 56.42 184.68 54.26C184.68 53.38 184.86 52.44 185.22 51.44C185.58 50.44 186.14 49.38 186.9 48.26C187.82 49.58 188.92 50.58 190.2 51.26C191.48 51.98 192.78 52.34 194.1 52.34C195.66 52.34 197.16 51.82 198.6 50.78C200.04 49.74 201.2 48.08 202.08 45.8C201.08 46.16 200.14 46.42 199.26 46.58C198.38 46.74 197.54 46.82 196.74 46.82C194.66 46.82 192.98 46.28 191.7 45.2C190.42 44.08 189.68 42.48 189.48 40.4C189.2 37.76 189.02 35.02 188.94 32.18C188.86 29.34 188.7 26.76 188.46 24.44C188.18 21.72 187.6 19.46 186.72 17.66C185.84 15.86 184.82 14.5 183.66 13.58C184.62 12.7 185.62 12.06 186.66 11.66C187.74 11.22 189.1 11 190.74 11C192.74 11 194.36 11.6 195.6 12.8C196.88 14 197.86 15.7 198.54 17.9C199.22 20.06 199.68 22.6 199.92 25.52C200.2 28.4 200.34 31.54 200.34 34.94C200.34 35.42 200.32 36.16 200.28 37.16C200.28 38.16 200.24 39.16 200.16 40.16H203.64C204.28 38.4 204.96 36.52 205.68 34.52C206.4 32.52 207.06 30.5 207.66 28.46C208.3 26.38 208.82 24.4 209.22 22.52C209.62 20.6 209.82 18.9 209.82 17.42C209.82 16.54 209.72 15.8 209.52 15.2C209.36 14.6 209.16 14.06 208.92 13.58C210.32 12.7 211.7 12.06 213.06 11.66C214.42 11.22 215.64 11 216.72 11C218.56 11 219.9 11.62 220.74 12.86C221.62 14.1 222.06 15.72 222.06 17.72C222.06 19.2 221.84 20.92 221.4 22.88C220.96 24.8 220.4 26.8 219.72 28.88C219.08 30.92 218.42 32.86 217.74 34.7C217.1 36.54 216.56 38.1 216.12 39.38C214.2 44.9 212.04 49.24 209.64 52.4C207.28 55.56 204.8 57.8 202.2 59.12C199.64 60.44 197.06 61.1 194.46 61.1Z" fill="#6AB9FF"/>
</svg>
