<svg width="1920" height="1210" viewBox="0 0 1920 1210" fill="none" xmlns="http://www.w3.org/2000/svg">
<g filter="url(#filter0_f_34_17)">
<ellipse cx="960" cy="540" rx="960" ry="540" fill="#63A9E6"/>
<path d="M960 60C1216.74 60 1446.22 118.665 1609.41 210.457C1774.47 303.306 1860 422.187 1860 540C1860 657.813 1774.47 776.694 1609.41 869.543C1446.22 961.335 1216.74 1020 960 1020C703.256 1020 473.778 961.335 310.593 869.543C145.527 776.694 60 657.813 60 540C60 422.187 145.527 303.306 310.593 210.457C473.778 118.665 703.256 60 960 60Z" stroke="#CCDAFF" stroke-width="120"/>
</g>
<path d="M595.883 334.785H599.663V358.995H595.883V334.785ZM598.583 345.36H605.603V348.465H598.583V345.36ZM586.658 359.85C589.388 359.85 591.743 360.165 593.723 360.795C595.733 361.395 597.278 362.28 598.358 363.45C599.468 364.59 600.023 365.985 600.023 367.635C600.023 369.255 599.468 370.65 598.358 371.82C597.278 372.99 595.733 373.875 593.723 374.475C591.743 375.105 589.388 375.42 586.658 375.42C583.898 375.42 581.513 375.105 579.503 374.475C577.493 373.875 575.948 372.99 574.868 371.82C573.788 370.65 573.248 369.255 573.248 367.635C573.248 365.985 573.788 364.59 574.868 363.45C575.948 362.28 577.493 361.395 579.503 360.795C581.513 360.165 583.898 359.85 586.658 359.85ZM586.658 362.865C584.648 362.865 582.908 363.06 581.438 363.45C579.998 363.81 578.873 364.35 578.063 365.07C577.283 365.76 576.893 366.615 576.893 367.635C576.893 368.625 577.283 369.48 578.063 370.2C578.873 370.92 579.998 371.475 581.438 371.865C582.908 372.225 584.648 372.405 586.658 372.405C588.638 372.405 590.363 372.225 591.833 371.865C593.303 371.475 594.428 370.92 595.208 370.2C595.988 369.48 596.378 368.625 596.378 367.635C596.378 366.615 595.988 365.76 595.208 365.07C594.428 364.35 593.303 363.81 591.833 363.45C590.363 363.06 588.638 362.865 586.658 362.865ZM569.828 352.695H572.978C575.828 352.695 578.303 352.665 580.403 352.605C582.503 352.545 584.438 352.41 586.208 352.2C587.978 351.99 589.778 351.705 591.608 351.345L592.013 354.405C590.153 354.765 588.308 355.05 586.478 355.26C584.678 355.44 582.698 355.575 580.538 355.665C578.378 355.725 575.858 355.755 572.978 355.755H569.828V352.695ZM569.828 337.89H587.783V340.95H573.518V354.72H569.828V337.89ZM639.034 334.83H642.769V364.665H639.034V334.83ZM616.624 371.55H644.029V374.61H616.624V371.55ZM616.624 361.92H620.359V372.99H616.624V361.92ZM619.999 337.08H623.104V341.175C623.104 343.845 622.639 346.35 621.709 348.69C620.779 351 619.459 353.04 617.749 354.81C616.069 356.55 614.089 357.885 611.809 358.815L609.829 355.845C611.899 355.035 613.684 353.88 615.184 352.38C616.714 350.88 617.899 349.17 618.739 347.25C619.579 345.3 619.999 343.275 619.999 341.175V337.08ZM620.674 337.08H623.779V341.175C623.779 342.705 624.019 344.19 624.499 345.63C624.979 347.04 625.669 348.36 626.569 349.59C627.469 350.82 628.534 351.915 629.764 352.875C631.024 353.805 632.404 354.54 633.904 355.08L631.969 358.05C629.719 357.18 627.739 355.92 626.029 354.27C624.349 352.59 623.029 350.64 622.069 348.42C621.139 346.17 620.674 343.755 620.674 341.175V337.08ZM680.385 334.785H684.12V375.555H680.385V334.785ZM662.655 337.935C664.665 337.935 666.435 338.52 667.965 339.69C669.525 340.83 670.74 342.465 671.61 344.595C672.51 346.725 672.96 349.23 672.96 352.11C672.96 354.99 672.51 357.495 671.61 359.625C670.74 361.755 669.525 363.405 667.965 364.575C666.435 365.745 664.665 366.33 662.655 366.33C660.645 366.33 658.86 365.745 657.3 364.575C655.74 363.405 654.51 361.755 653.61 359.625C652.74 357.495 652.305 354.99 652.305 352.11C652.305 349.23 652.74 346.725 653.61 344.595C654.51 342.465 655.74 340.83 657.3 339.69C658.86 338.52 660.645 337.935 662.655 337.935ZM662.655 341.265C661.305 341.265 660.12 341.715 659.1 342.615C658.11 343.485 657.33 344.745 656.76 346.395C656.19 348.015 655.905 349.92 655.905 352.11C655.905 354.3 656.19 356.22 656.76 357.87C657.33 359.49 658.11 360.75 659.1 361.65C660.12 362.55 661.305 363 662.655 363C663.975 363 665.13 362.55 666.12 361.65C667.14 360.75 667.935 359.49 668.505 357.87C669.075 356.22 669.36 354.3 669.36 352.11C669.36 349.92 669.075 348.015 668.505 346.395C667.935 344.745 667.14 343.485 666.12 342.615C665.13 341.715 663.975 341.265 662.655 341.265ZM707.18 336.54H733.37V339.555H707.18V336.54ZM702.5 351.075H739.4V354.135H702.5V351.075ZM719.015 353.235H722.705V361.65H719.015V353.235ZM730.94 336.54H734.63V339.465C734.63 341.145 734.57 343.035 734.45 345.135C734.33 347.235 733.94 349.665 733.28 352.425L729.635 352.02C730.295 349.29 730.67 346.935 730.76 344.955C730.88 342.945 730.94 341.115 730.94 339.465V336.54ZM720.86 360.39C725.24 360.39 728.675 361.05 731.165 362.37C733.685 363.66 734.945 365.505 734.945 367.905C734.945 370.305 733.685 372.15 731.165 373.44C728.675 374.76 725.24 375.42 720.86 375.42C716.45 375.42 712.985 374.76 710.465 373.44C707.975 372.15 706.73 370.305 706.73 367.905C706.73 365.505 707.975 363.66 710.465 362.37C712.985 361.05 716.45 360.39 720.86 360.39ZM720.86 363.405C718.7 363.405 716.84 363.585 715.28 363.945C713.72 364.305 712.52 364.815 711.68 365.475C710.87 366.135 710.465 366.945 710.465 367.905C710.465 368.865 710.87 369.675 711.68 370.335C712.52 370.995 713.72 371.505 715.28 371.865C716.84 372.225 718.7 372.405 720.86 372.405C723.02 372.405 724.865 372.225 726.395 371.865C727.955 371.505 729.14 370.995 729.95 370.335C730.79 369.675 731.21 368.865 731.21 367.905C731.21 366.945 730.79 366.135 729.95 365.475C729.14 364.815 727.955 364.305 726.395 363.945C724.865 363.585 723.02 363.405 720.86 363.405ZM748.577 336.945H774.767V340.005H748.577V336.945ZM743.897 351.93H780.797V354.99H743.897V351.93ZM772.337 336.945H776.027V339.96C776.027 341.67 775.967 343.56 775.847 345.63C775.727 347.7 775.337 350.16 774.677 353.01L770.987 352.785C771.647 350.025 772.037 347.625 772.157 345.585C772.277 343.515 772.337 341.64 772.337 339.96V336.945ZM748.442 360.525H776.162V374.97H748.442V360.525ZM772.472 363.495H752.087V371.91H772.472V363.495ZM813.148 334.83H816.883V365.34H813.148V334.83ZM815.713 348.195H822.868V351.3H815.713V348.195ZM785.383 339.78H809.413V342.795H785.383V339.78ZM797.398 345C799.318 345 801.013 345.33 802.483 345.99C803.953 346.62 805.093 347.505 805.903 348.645C806.713 349.755 807.118 351.075 807.118 352.605C807.118 354.135 806.713 355.47 805.903 356.61C805.093 357.72 803.953 358.59 802.483 359.22C801.013 359.85 799.318 360.165 797.398 360.165C795.478 360.165 793.783 359.85 792.313 359.22C790.843 358.59 789.688 357.72 788.848 356.61C788.038 355.47 787.633 354.135 787.633 352.605C787.633 351.075 788.038 349.755 788.848 348.645C789.688 347.505 790.843 346.62 792.313 345.99C793.783 345.33 795.478 345 797.398 345ZM797.398 347.925C795.568 347.925 794.083 348.36 792.943 349.23C791.803 350.07 791.233 351.195 791.233 352.605C791.233 354.015 791.803 355.14 792.943 355.98C794.083 356.82 795.568 357.24 797.398 357.24C799.258 357.24 800.743 356.82 801.853 355.98C802.993 355.14 803.563 354.015 803.563 352.605C803.563 351.195 802.993 350.07 801.853 349.23C800.743 348.36 799.258 347.925 797.398 347.925ZM795.553 334.83H799.288V341.31H795.553V334.83ZM791.548 371.55H818.683V374.61H791.548V371.55ZM791.548 362.91H795.238V372.81H791.548V362.91ZM866.718 334.83H870.453V362.325H866.718V334.83ZM857.988 346.26H867.483V349.365H857.988V346.26ZM853.893 338.025H857.808C857.808 341.505 857.073 344.655 855.603 347.475C854.133 350.265 852.003 352.695 849.213 354.765C846.453 356.835 843.138 358.5 839.268 359.76L837.648 356.79C841.098 355.71 844.023 354.33 846.423 352.65C848.853 350.97 850.698 349.02 851.958 346.8C853.248 344.58 853.893 342.135 853.893 339.465V338.025ZM839.628 338.025H856.548V341.085H839.628V338.025ZM855.468 358.86H858.663V360.705C858.663 362.625 858.243 364.41 857.403 366.06C856.593 367.68 855.468 369.12 854.028 370.38C852.618 371.61 850.998 372.645 849.168 373.485C847.338 374.355 845.403 374.985 843.363 375.375L841.878 372.405C843.678 372.105 845.388 371.61 847.008 370.92C848.658 370.2 850.113 369.33 851.373 368.31C852.633 367.29 853.623 366.135 854.343 364.845C855.093 363.555 855.468 362.175 855.468 360.705V358.86ZM855.963 358.86H859.158V360.705C859.158 362.145 859.518 363.51 860.238 364.8C860.958 366.06 861.948 367.2 863.208 368.22C864.468 369.24 865.908 370.095 867.528 370.785C869.178 371.475 870.888 371.985 872.658 372.315L871.128 375.285C869.088 374.895 867.153 374.28 865.323 373.44C863.523 372.6 861.918 371.565 860.508 370.335C859.098 369.075 857.988 367.635 857.178 366.015C856.368 364.395 855.963 362.625 855.963 360.705V358.86ZM879.314 366.15H883.139L880.619 377.76L877.784 377.22L879.314 366.15ZM919.025 342.165H929.465V345.225H919.025V342.165ZM927.89 334.785H931.625V355.8H927.89V334.785ZM905.435 357.87H931.625V367.635H909.17V373.8H905.525V364.8H927.935V360.84H905.435V357.87ZM905.525 371.955H933.11V374.97H905.525V371.955ZM908.315 336.09H911.33V339.87C911.33 342.36 910.865 344.685 909.935 346.845C909.005 348.975 907.7 350.82 906.02 352.38C904.34 353.91 902.36 355.08 900.08 355.89L898.1 352.92C900.14 352.23 901.925 351.24 903.455 349.95C904.985 348.66 906.17 347.16 907.01 345.45C907.88 343.71 908.315 341.85 908.315 339.87V336.09ZM908.9 336.09H911.96V339.87C911.96 341.19 912.2 342.48 912.68 343.74C913.16 344.97 913.835 346.125 914.705 347.205C915.605 348.285 916.67 349.245 917.9 350.085C919.13 350.895 920.48 351.54 921.95 352.02L919.97 354.945C917.78 354.165 915.845 353.04 914.165 351.57C912.515 350.07 911.225 348.33 910.295 346.35C909.365 344.34 908.9 342.18 908.9 339.87V336.09ZM939.496 355.575H976.396V358.635H939.496V355.575ZM956.326 357.51H960.061V366.87H956.326V357.51ZM944.266 336.72H971.581V350.985H944.266V336.72ZM967.936 339.69H947.911V348.015H967.936V339.69ZM944.176 371.55H972.301V374.61H944.176V371.55ZM944.176 362.955H947.911V372.585H944.176V362.955ZM999.298 337.395C1002.15 337.395 1004.68 337.86 1006.9 338.79C1009.12 339.72 1010.88 341.025 1012.17 342.705C1013.46 344.385 1014.1 346.35 1014.1 348.6C1014.1 350.88 1013.46 352.86 1012.17 354.54C1010.88 356.22 1009.12 357.525 1006.9 358.455C1004.68 359.385 1002.15 359.85 999.298 359.85C996.508 359.85 993.988 359.385 991.738 358.455C989.518 357.525 987.763 356.22 986.473 354.54C985.183 352.86 984.538 350.88 984.538 348.6C984.538 346.35 985.183 344.385 986.473 342.705C987.763 341.025 989.518 339.72 991.738 338.79C993.988 337.86 996.508 337.395 999.298 337.395ZM999.298 340.41C997.168 340.41 995.263 340.755 993.583 341.445C991.903 342.135 990.568 343.095 989.578 344.325C988.588 345.525 988.093 346.95 988.093 348.6C988.093 350.22 988.588 351.645 989.578 352.875C990.568 354.105 991.903 355.065 993.583 355.755C995.263 356.445 997.168 356.79 999.298 356.79C1001.46 356.79 1003.38 356.445 1005.06 355.755C1006.74 355.065 1008.06 354.105 1009.02 352.875C1010.01 351.645 1010.5 350.22 1010.5 348.6C1010.5 346.95 1010.01 345.525 1009.02 344.325C1008.06 343.095 1006.74 342.135 1005.06 341.445C1003.38 340.755 1001.46 340.41 999.298 340.41ZM980.938 367.005H1017.84V370.11H980.938V367.005ZM1022.33 367.365H1059.23V370.47H1022.33V367.365ZM1038.85 358.68H1042.54V368.67H1038.85V358.68ZM1026.83 337.8H1054.64V350.13H1030.61V358.275H1026.92V347.16H1050.95V340.86H1026.83V337.8ZM1026.92 356.7H1055.59V359.76H1026.92V356.7ZM1084.86 338.97H1087.96V342.255C1087.96 344.745 1087.48 347.055 1086.52 349.185C1085.56 351.315 1084.21 353.175 1082.47 354.765C1080.76 356.355 1078.77 357.555 1076.49 358.365L1074.55 355.485C1076.59 354.735 1078.38 353.7 1079.91 352.38C1081.47 351.03 1082.68 349.485 1083.55 347.745C1084.42 346.005 1084.86 344.175 1084.86 342.255V338.97ZM1085.58 338.97H1088.64V342.255C1088.64 343.635 1088.88 344.955 1089.36 346.215C1089.87 347.475 1090.59 348.66 1091.52 349.77C1092.45 350.85 1093.53 351.825 1094.76 352.695C1096.02 353.535 1097.4 354.195 1098.9 354.675L1097.01 357.6C1094.76 356.82 1092.78 355.68 1091.07 354.18C1089.36 352.68 1088.01 350.91 1087.02 348.87C1086.06 346.83 1085.58 344.625 1085.58 342.255V338.97ZM1103.62 334.785H1107.36V359.4H1103.62V334.785ZM1080.18 361.56H1107.36V375.51H1103.62V364.62H1080.18V361.56ZM1075.54 337.62H1097.82V340.68H1075.54V337.62ZM1137.1 344.64H1146.15V347.745H1137.1V344.64ZM1145.16 334.785H1148.85V356.925H1145.16V334.785ZM1122.84 358.86H1126.53V363.855H1145.16V358.86H1148.85V374.97H1122.84V358.86ZM1126.53 366.825V371.91H1145.16V366.825H1126.53ZM1125.76 337.98H1128.82V341.31C1128.82 343.77 1128.34 346.08 1127.38 348.24C1126.45 350.4 1125.13 352.29 1123.42 353.91C1121.71 355.53 1119.73 356.76 1117.48 357.6L1115.55 354.63C1117.05 354.09 1118.41 353.37 1119.64 352.47C1120.9 351.57 1122 350.535 1122.93 349.365C1123.86 348.165 1124.56 346.89 1125.04 345.54C1125.52 344.16 1125.76 342.75 1125.76 341.31V337.98ZM1126.48 337.98H1129.54V341.31C1129.54 343.05 1129.95 344.745 1130.76 346.395C1131.57 348.015 1132.72 349.47 1134.22 350.76C1135.72 352.02 1137.45 353.01 1139.4 353.73L1137.51 356.655C1135.29 355.845 1133.35 354.675 1131.7 353.145C1130.05 351.615 1128.76 349.83 1127.83 347.79C1126.93 345.72 1126.48 343.56 1126.48 341.31V337.98ZM1116.72 337.215H1138.45V340.275H1116.72V337.215ZM1194.95 334.785H1198.68V355.485H1194.95V334.785ZM1197.02 343.56H1204.67V346.665H1197.02V343.56ZM1172.81 357.42H1198.68V367.41H1176.59V373.53H1172.94V364.62H1194.99V360.39H1172.81V357.42ZM1172.94 371.955H1200.12V374.97H1172.94V371.955ZM1178.34 336.27C1180.38 336.27 1182.18 336.645 1183.74 337.395C1185.33 338.145 1186.58 339.21 1187.48 340.59C1188.38 341.94 1188.83 343.515 1188.83 345.315C1188.83 347.085 1188.38 348.66 1187.48 350.04C1186.58 351.39 1185.33 352.455 1183.74 353.235C1182.18 353.985 1180.38 354.36 1178.34 354.36C1176.33 354.36 1174.53 353.985 1172.94 353.235C1171.35 352.455 1170.09 351.39 1169.16 350.04C1168.26 348.66 1167.81 347.07 1167.81 345.27C1167.81 343.5 1168.26 341.94 1169.16 340.59C1170.09 339.21 1171.35 338.145 1172.94 337.395C1174.53 336.645 1176.33 336.27 1178.34 336.27ZM1178.34 339.33C1177.02 339.33 1175.84 339.585 1174.79 340.095C1173.77 340.605 1172.96 341.31 1172.36 342.21C1171.76 343.08 1171.46 344.115 1171.46 345.315C1171.46 346.485 1171.76 347.52 1172.36 348.42C1172.96 349.32 1173.77 350.04 1174.79 350.58C1175.84 351.09 1177.02 351.345 1178.34 351.345C1179.66 351.345 1180.83 351.09 1181.85 350.58C1182.9 350.04 1183.73 349.32 1184.33 348.42C1184.93 347.52 1185.23 346.485 1185.23 345.315C1185.23 344.115 1184.93 343.08 1184.33 342.21C1183.73 341.31 1182.9 340.605 1181.85 340.095C1180.83 339.585 1179.66 339.33 1178.34 339.33ZM1219.29 337.935C1221.3 337.935 1223.07 338.52 1224.6 339.69C1226.13 340.83 1227.33 342.465 1228.2 344.595C1229.07 346.725 1229.5 349.23 1229.5 352.11C1229.5 354.99 1229.07 357.495 1228.2 359.625C1227.33 361.755 1226.13 363.405 1224.6 364.575C1223.07 365.745 1221.3 366.33 1219.29 366.33C1217.31 366.33 1215.54 365.745 1213.98 364.575C1212.45 363.405 1211.25 361.755 1210.38 359.625C1209.51 357.495 1209.07 354.99 1209.07 352.11C1209.07 349.23 1209.51 346.725 1210.38 344.595C1211.25 342.465 1212.45 340.83 1213.98 339.69C1215.54 338.52 1217.31 337.935 1219.29 337.935ZM1219.29 341.265C1218 341.265 1216.84 341.715 1215.82 342.615C1214.83 343.485 1214.05 344.745 1213.48 346.395C1212.91 348.015 1212.63 349.92 1212.63 352.11C1212.63 354.3 1212.91 356.22 1213.48 357.87C1214.05 359.49 1214.83 360.75 1215.82 361.65C1216.84 362.55 1218.01 363 1219.33 363C1220.62 363 1221.76 362.55 1222.75 361.65C1223.77 360.75 1224.55 359.49 1225.09 357.87C1225.66 356.22 1225.95 354.3 1225.95 352.11C1225.95 349.92 1225.66 348.015 1225.09 346.395C1224.55 344.745 1223.77 343.485 1222.75 342.615C1221.76 341.715 1220.61 341.265 1219.29 341.265ZM1236.03 334.785H1239.76V375.51H1236.03V334.785ZM1238.91 351.03H1246.42V354.18H1238.91V351.03ZM1249.88 367.23H1286.78V370.335H1249.88V367.23ZM1266.4 357.465H1270.09V368.13H1266.4V357.465ZM1254.2 337.665H1257.94V344.91H1278.64V337.665H1282.33V358.5H1254.2V337.665ZM1257.94 347.97V355.44H1278.64V347.97H1257.94ZM1307.3 349.365H1315.13V352.47H1307.3V349.365ZM1299.74 338.61H1302.66V346.395C1302.66 348.495 1302.44 350.565 1301.99 352.605C1301.57 354.645 1300.94 356.565 1300.1 358.365C1299.29 360.165 1298.3 361.785 1297.13 363.225C1295.96 364.665 1294.64 365.835 1293.17 366.735L1290.83 363.945C1292.21 363.105 1293.45 362.055 1294.56 360.795C1295.67 359.535 1296.6 358.125 1297.35 356.565C1298.13 354.975 1298.72 353.325 1299.11 351.615C1299.53 349.875 1299.74 348.135 1299.74 346.395V338.61ZM1300.46 338.61H1303.34V346.26C1303.34 347.88 1303.52 349.515 1303.88 351.165C1304.27 352.785 1304.81 354.345 1305.5 355.845C1306.22 357.315 1307.1 358.665 1308.15 359.895C1309.2 361.125 1310.39 362.145 1311.71 362.955L1309.59 365.835C1308.12 364.935 1306.82 363.795 1305.68 362.415C1304.54 361.005 1303.58 359.43 1302.8 357.69C1302.02 355.92 1301.43 354.06 1301.04 352.11C1300.65 350.16 1300.46 348.21 1300.46 346.26V338.61ZM1322.28 334.785H1325.88V375.51H1322.28V334.785ZM1314 335.64H1317.51V373.44H1314V335.64ZM1341.72 355.755H1345.41V367.905H1341.72V355.755ZM1356.75 355.755H1360.49V367.905H1356.75V355.755ZM1332.68 367.185H1369.58V370.29H1332.68V367.185ZM1351.04 337.35C1353.92 337.35 1356.47 337.785 1358.69 338.655C1360.91 339.525 1362.65 340.74 1363.91 342.3C1365.2 343.86 1365.84 345.705 1365.84 347.835C1365.84 349.935 1365.2 351.78 1363.91 353.37C1362.65 354.93 1360.91 356.145 1358.69 357.015C1356.47 357.855 1353.92 358.275 1351.04 358.275C1348.19 358.275 1345.64 357.855 1343.39 357.015C1341.17 356.145 1339.43 354.93 1338.17 353.37C1336.91 351.78 1336.28 349.935 1336.28 347.835C1336.28 345.705 1336.91 343.86 1338.17 342.3C1339.43 340.74 1341.17 339.525 1343.39 338.655C1345.64 337.785 1348.19 337.35 1351.04 337.35ZM1351.04 340.32C1348.88 340.32 1346.96 340.635 1345.28 341.265C1343.6 341.895 1342.28 342.78 1341.32 343.92C1340.36 345.03 1339.88 346.335 1339.88 347.835C1339.88 349.335 1340.36 350.655 1341.32 351.795C1342.28 352.905 1343.6 353.775 1345.28 354.405C1346.96 355.035 1348.88 355.35 1351.04 355.35C1353.23 355.35 1355.16 355.035 1356.84 354.405C1358.52 353.775 1359.84 352.905 1360.8 351.795C1361.76 350.655 1362.24 349.335 1362.24 347.835C1362.24 346.335 1361.76 345.03 1360.8 343.92C1359.84 342.78 1358.52 341.895 1356.84 341.265C1355.16 340.635 1353.23 340.32 1351.04 340.32Z" fill="white"/>
<path d="M782.521 562.714C775.321 562.714 769.401 562.194 764.761 561.154C760.121 560.194 756.521 558.834 753.961 557.074C751.401 555.314 749.601 553.314 748.561 551.074C747.601 548.754 747.121 546.314 747.121 543.754C747.121 541.354 747.481 538.954 748.201 536.554C749.001 534.154 750.361 531.674 752.281 529.114C753.401 531.434 755.241 533.674 757.801 535.834C760.361 537.994 763.241 539.754 766.441 541.114C769.721 542.474 772.921 543.154 776.041 543.154C780.201 543.154 783.641 542.514 786.361 541.234C789.161 539.874 791.161 537.794 792.361 534.994C778.761 533.154 768.561 529.394 761.761 523.714C754.961 517.954 751.561 511.194 751.561 503.434C751.561 498.874 752.481 494.874 754.321 491.434C756.241 487.994 758.761 485.114 761.881 482.794C765.001 480.394 768.401 478.474 772.081 477.034C775.761 475.514 779.401 474.434 783.001 473.794C786.601 473.074 789.801 472.714 792.601 472.714C802.761 472.714 810.561 473.914 816.001 476.314C821.521 478.634 824.281 482.754 824.281 488.674C824.281 492.114 823.481 494.994 821.881 497.314C820.361 499.634 818.321 501.394 815.761 502.594C813.281 503.714 810.561 504.274 807.601 504.274C804.081 504.274 800.641 503.274 797.281 501.274C793.921 499.194 791.561 496.314 790.201 492.634C787.401 492.634 784.641 493.594 781.921 495.514C779.201 497.354 777.441 499.914 776.641 503.194C787.281 505.754 795.841 508.594 802.321 511.714C808.881 514.834 813.641 518.354 816.601 522.274C819.561 526.194 821.041 530.674 821.041 535.714C821.041 541.554 819.321 546.474 815.881 550.474C812.441 554.474 807.801 557.514 801.961 559.594C796.201 561.674 789.721 562.714 782.521 562.714ZM852.298 562.714C847.338 562.714 843.458 561.834 840.658 560.074C837.938 558.394 836.018 556.114 834.898 553.234C833.858 550.274 833.338 546.954 833.338 543.274C833.338 539.034 833.778 534.594 834.658 529.954C835.538 525.234 836.418 520.674 837.298 516.274C838.178 511.794 838.618 507.874 838.618 504.514C838.618 499.554 837.778 495.914 836.098 493.594C839.378 491.834 842.778 490.434 846.298 489.394C849.898 488.274 852.778 487.714 854.938 487.714C858.218 487.714 860.578 488.394 862.018 489.754C863.538 491.034 864.298 493.194 864.298 496.234C864.298 497.914 864.058 500.234 863.578 503.194C863.098 506.074 862.498 509.234 861.778 512.674C861.058 516.114 860.298 519.594 859.498 523.114C858.778 526.554 858.178 529.674 857.698 532.474C857.218 535.274 856.978 537.474 856.978 539.074C856.978 542.034 857.738 544.274 859.258 545.794C860.858 547.314 862.778 548.074 865.018 548.074C867.578 548.074 870.258 547.114 873.058 545.194C875.858 543.274 878.178 540.474 880.018 536.794C880.338 535.034 880.738 532.834 881.218 530.194C881.778 527.554 882.378 524.754 883.018 521.794C883.738 518.754 884.378 515.874 884.938 513.154C885.578 510.354 886.138 507.994 886.618 506.074L879.418 496.474C882.858 493.994 886.538 491.914 890.458 490.234C894.378 488.554 898.378 487.714 902.458 487.714C906.058 487.714 908.618 488.394 910.138 489.754C911.738 491.034 912.538 493.194 912.538 496.234C912.538 497.914 912.218 500.234 911.578 503.194C911.018 506.154 910.298 509.474 909.418 513.154C908.618 516.754 907.778 520.514 906.898 524.434C906.018 528.354 905.258 532.194 904.618 535.954C904.058 539.634 903.778 542.954 903.778 545.914C903.778 548.314 904.058 550.474 904.618 552.394C905.258 554.234 906.218 555.714 907.498 556.834C903.018 560.754 898.258 562.714 893.218 562.714C888.098 562.714 884.538 561.554 882.538 559.234C880.538 556.914 879.538 554.154 879.538 550.954L878.338 550.354C875.698 554.274 872.018 557.314 867.298 559.474C862.578 561.634 857.578 562.714 852.298 562.714ZM937.339 562.714C932.459 562.714 928.979 561.434 926.899 558.874C924.819 556.314 923.779 552.634 923.779 547.834C923.779 546.154 924.019 543.594 924.499 540.154C924.979 536.634 925.579 532.754 926.299 528.514C927.099 524.194 927.939 519.874 928.819 515.554C929.699 511.234 930.539 507.394 931.339 504.034L925.099 494.434C929.259 492.594 933.099 491.034 936.619 489.754C940.219 488.394 943.419 487.714 946.219 487.714C948.299 487.714 949.819 488.434 950.779 489.874C951.739 491.314 952.219 493.154 952.219 495.394C952.219 497.954 951.779 500.834 950.899 504.034C950.019 507.154 949.139 510.114 948.259 512.914L949.459 513.514C952.259 505.274 955.419 498.914 958.939 494.434C962.539 489.954 966.539 487.714 970.939 487.714C973.819 487.714 976.139 488.354 977.899 489.634C979.659 490.834 980.939 492.354 981.739 494.194C982.619 495.954 983.059 497.674 983.059 499.354C983.059 501.994 982.379 504.554 981.019 507.034C979.739 509.434 977.659 511.434 974.779 513.034C971.899 514.554 968.099 515.314 963.379 515.314C961.539 515.314 959.739 515.714 957.979 516.514C956.219 517.314 954.619 518.834 953.179 521.074C951.739 523.234 950.579 526.314 949.699 530.314C948.899 534.314 948.499 539.514 948.499 545.914C948.499 550.874 949.339 554.514 951.019 556.834C946.059 560.754 941.499 562.714 937.339 562.714ZM1014.53 562.714C1006.53 562.714 1000.77 561.474 997.255 558.994C993.815 556.434 992.095 552.274 992.095 546.514C992.095 541.234 992.175 535.594 992.335 529.594C992.495 523.514 992.575 518.154 992.575 513.514C992.575 508.074 991.935 503.754 990.655 500.554C989.455 497.274 987.935 494.714 986.095 492.874C990.255 489.434 994.815 487.714 999.775 487.714C1004.25 487.714 1007.65 489.034 1009.97 491.674C1012.29 494.234 1013.85 497.754 1014.65 502.234C1015.53 506.714 1015.97 511.714 1015.97 517.234C1015.97 520.194 1015.93 523.554 1015.85 527.314C1015.85 530.994 1015.81 534.674 1015.73 538.354C1015.65 541.954 1015.53 545.194 1015.37 548.074H1019.45C1021.21 544.314 1023.13 540.194 1025.21 535.714C1027.29 531.154 1029.29 526.554 1031.21 521.914C1033.13 517.194 1034.69 512.794 1035.89 508.714C1037.09 504.554 1037.69 501.074 1037.69 498.274C1037.69 497.154 1037.57 496.154 1037.33 495.274C1037.17 494.394 1036.93 493.594 1036.61 492.874C1039.65 491.114 1042.53 489.834 1045.25 489.034C1048.05 488.154 1050.53 487.714 1052.69 487.714C1056.13 487.714 1058.53 488.754 1059.89 490.834C1061.33 492.914 1062.05 495.634 1062.05 498.994C1062.05 501.874 1061.41 505.314 1060.13 509.314C1058.93 513.314 1057.41 517.514 1055.57 521.914C1053.73 526.234 1051.89 530.394 1050.05 534.394C1048.21 538.314 1046.73 541.674 1045.61 544.474L1047.17 551.434C1045.01 553.354 1042.13 555.194 1038.53 556.954C1035.01 558.634 1031.13 559.994 1026.89 561.034C1022.73 562.154 1018.61 562.714 1014.53 562.714ZM1087.03 562.714C1082.15 562.714 1078.67 561.194 1076.59 558.154C1074.51 555.114 1073.47 550.474 1073.47 544.234C1073.47 542.474 1073.67 539.874 1074.07 536.434C1074.55 532.994 1075.15 529.074 1075.87 524.674C1076.59 520.274 1077.39 515.714 1078.27 510.994C1079.15 506.194 1079.99 501.554 1080.79 497.074C1081.59 492.594 1082.31 488.594 1082.95 485.074L1076.23 475.474C1080.47 472.994 1084.51 470.914 1088.35 469.234C1092.19 467.554 1096.03 466.714 1099.87 466.714C1103.23 466.714 1105.55 467.394 1106.83 468.754C1108.19 470.034 1108.87 472.194 1108.87 475.234C1108.87 478.034 1108.51 481.554 1107.79 485.794C1107.07 489.954 1106.19 494.514 1105.15 499.474C1104.11 504.354 1103.03 509.394 1101.91 514.594C1100.87 519.794 1099.99 524.794 1099.27 529.594C1098.55 534.394 1098.19 538.754 1098.19 542.674C1098.19 545.794 1098.47 548.594 1099.03 551.074C1099.67 553.474 1100.63 555.394 1101.91 556.834C1096.31 560.754 1091.35 562.714 1087.03 562.714ZM1135.84 587.914C1130.32 587.914 1125.68 586.714 1121.92 584.314C1118.16 581.914 1116.28 578.554 1116.28 574.234C1116.28 572.474 1116.64 570.594 1117.36 568.594C1118.08 566.594 1119.2 564.474 1120.72 562.234C1122.56 564.874 1124.76 566.874 1127.32 568.234C1129.88 569.674 1132.48 570.394 1135.12 570.394C1138.24 570.394 1141.24 569.354 1144.12 567.274C1147 565.194 1149.32 561.874 1151.08 557.314C1149.08 558.034 1147.2 558.554 1145.44 558.874C1143.68 559.194 1142 559.354 1140.4 559.354C1136.24 559.354 1132.88 558.274 1130.32 556.114C1127.76 553.874 1126.28 550.674 1125.88 546.514C1125.32 541.234 1124.96 535.754 1124.8 530.074C1124.64 524.394 1124.32 519.234 1123.84 514.594C1123.28 509.154 1122.12 504.634 1120.36 501.034C1118.6 497.434 1116.56 494.714 1114.24 492.874C1116.16 491.114 1118.16 489.834 1120.24 489.034C1122.4 488.154 1125.12 487.714 1128.4 487.714C1132.4 487.714 1135.64 488.914 1138.12 491.314C1140.68 493.714 1142.64 497.114 1144 501.514C1145.36 505.834 1146.28 510.914 1146.76 516.754C1147.32 522.514 1147.6 528.794 1147.6 535.594C1147.6 536.554 1147.56 538.034 1147.48 540.034C1147.48 542.034 1147.4 544.034 1147.24 546.034H1154.2C1155.48 542.514 1156.84 538.754 1158.28 534.754C1159.72 530.754 1161.04 526.714 1162.24 522.634C1163.52 518.474 1164.56 514.514 1165.36 510.754C1166.16 506.914 1166.56 503.514 1166.56 500.554C1166.56 498.794 1166.36 497.314 1165.96 496.114C1165.64 494.914 1165.24 493.834 1164.76 492.874C1167.56 491.114 1170.32 489.834 1173.04 489.034C1175.76 488.154 1178.2 487.714 1180.36 487.714C1184.04 487.714 1186.72 488.954 1188.4 491.434C1190.16 493.914 1191.04 497.154 1191.04 501.154C1191.04 504.114 1190.6 507.554 1189.72 511.474C1188.84 515.314 1187.72 519.314 1186.36 523.474C1185.08 527.554 1183.76 531.434 1182.4 535.114C1181.12 538.794 1180.04 541.914 1179.16 544.474C1175.32 555.514 1171 564.194 1166.2 570.514C1161.48 576.834 1156.52 581.314 1151.32 583.954C1146.2 586.594 1141.04 587.914 1135.84 587.914Z" fill="white"/>
<rect x="71" y="36" width="66" height="74" rx="10" fill="#65B7FF"/>
<g filter="url(#filter1_d_34_17)">
<path d="M102.115 90.375C98.6683 90.375 95.9183 90.1 93.865 89.55C91.8483 89.0367 90.4 88.3217 89.52 87.405C88.64 86.4883 88.2 85.48 88.2 84.38C88.2 83.5367 88.42 82.565 88.86 81.465C89.3367 80.365 90.015 79.32 90.895 78.33C91.5183 79.1733 92.3433 79.9617 93.37 80.695C94.4333 81.3917 95.5883 81.96 96.835 82.4C98.0817 82.8033 99.2917 83.005 100.465 83.005C101.748 83.005 102.903 82.7117 103.93 82.125C104.957 81.5017 105.635 80.4567 105.965 78.99C100.318 78.33 96.2667 77.0833 93.81 75.25C91.3533 73.38 90.125 70.795 90.125 67.495C90.125 65.405 90.62 63.6267 91.61 62.16C92.6 60.6933 93.92 59.52 95.57 58.64C97.2567 57.7233 99.1633 57.0633 101.29 56.66C103.453 56.22 105.69 56 108 56C110.163 56 112.088 56.2933 113.775 56.88C115.462 57.43 116.782 58.1817 117.735 59.135C118.688 60.0883 119.165 61.1883 119.165 62.435C119.165 64.195 118.523 65.5333 117.24 66.45C115.993 67.3667 114.563 67.825 112.95 67.825C111.85 67.825 110.695 67.4583 109.485 66.725C108.275 65.9917 107.303 64.855 106.57 63.315C105.213 63.7183 104.132 64.305 103.325 65.075C102.518 65.8083 101.803 66.8717 101.18 68.265C105.36 68.8883 108.678 69.6767 111.135 70.63C113.592 71.5833 115.352 72.7933 116.415 74.26C117.515 75.69 118.065 77.4683 118.065 79.595C118.065 81.2817 117.68 82.7483 116.91 83.995C116.177 85.2417 115.205 86.2683 113.995 87.075C112.785 87.8817 111.465 88.5233 110.035 89C108.605 89.5133 107.193 89.8617 105.8 90.045C104.407 90.265 103.178 90.375 102.115 90.375Z" fill="#DBF7FF"/>
</g>
<rect x="89" y="28" width="30" height="15" rx="7.5" fill="#E0F8FF"/>
<path d="M180.8 94.5C177.2 94.5 174.24 94.24 171.92 93.72C169.6 93.24 167.8 92.56 166.52 91.68C165.24 90.8 164.34 89.8 163.82 88.68C163.34 87.52 163.1 86.3 163.1 85.02C163.1 83.82 163.28 82.62 163.64 81.42C164.04 80.22 164.72 78.98 165.68 77.7C166.24 78.86 167.16 79.98 168.44 81.06C169.72 82.14 171.16 83.02 172.76 83.7C174.4 84.38 176 84.72 177.56 84.72C179.64 84.72 181.36 84.4 182.72 83.76C184.12 83.08 185.12 82.04 185.72 80.64C178.92 79.72 173.82 77.84 170.42 75C167.02 72.12 165.32 68.74 165.32 64.86C165.32 62.58 165.78 60.58 166.7 58.86C167.66 57.14 168.92 55.7 170.48 54.54C172.04 53.34 173.74 52.38 175.58 51.66C177.42 50.9 179.24 50.36 181.04 50.04C182.84 49.68 184.44 49.5 185.84 49.5C190.92 49.5 194.82 50.1 197.54 51.3C200.3 52.46 201.68 54.52 201.68 57.48C201.68 59.2 201.28 60.64 200.48 61.8C199.72 62.96 198.7 63.84 197.42 64.44C196.18 65 194.82 65.28 193.34 65.28C191.58 65.28 189.86 64.78 188.18 63.78C186.5 62.74 185.32 61.3 184.64 59.46C183.24 59.46 181.86 59.94 180.5 60.9C179.14 61.82 178.26 63.1 177.86 64.74C183.18 66.02 187.46 67.44 190.7 69C193.98 70.56 196.36 72.32 197.84 74.28C199.32 76.24 200.06 78.48 200.06 81C200.06 83.92 199.2 86.38 197.48 88.38C195.76 90.38 193.44 91.9 190.52 92.94C187.64 93.98 184.4 94.5 180.8 94.5ZM215.689 94.5C213.209 94.5 211.269 94.06 209.869 93.18C208.509 92.34 207.549 91.2 206.989 89.76C206.469 88.28 206.209 86.62 206.209 84.78C206.209 82.66 206.429 80.44 206.869 78.12C207.309 75.76 207.749 73.48 208.189 71.28C208.629 69.04 208.849 67.08 208.849 65.4C208.849 62.92 208.429 61.1 207.589 59.94C209.229 59.06 210.929 58.36 212.689 57.84C214.489 57.28 215.929 57 217.009 57C218.649 57 219.829 57.34 220.549 58.02C221.309 58.66 221.689 59.74 221.689 61.26C221.689 62.1 221.569 63.26 221.329 64.74C221.089 66.18 220.789 67.76 220.429 69.48C220.069 71.2 219.689 72.94 219.289 74.7C218.929 76.42 218.629 77.98 218.389 79.38C218.149 80.78 218.029 81.88 218.029 82.68C218.029 84.16 218.409 85.28 219.169 86.04C219.969 86.8 220.929 87.18 222.049 87.18C223.329 87.18 224.669 86.7 226.069 85.74C227.469 84.78 228.629 83.38 229.549 81.54C229.709 80.66 229.909 79.56 230.149 78.24C230.429 76.92 230.729 75.52 231.049 74.04C231.409 72.52 231.729 71.08 232.009 69.72C232.329 68.32 232.609 67.14 232.849 66.18L229.249 61.38C230.969 60.14 232.809 59.1 234.769 58.26C236.729 57.42 238.729 57 240.769 57C242.569 57 243.849 57.34 244.609 58.02C245.409 58.66 245.809 59.74 245.809 61.26C245.809 62.1 245.649 63.26 245.329 64.74C245.049 66.22 244.689 67.88 244.249 69.72C243.849 71.52 243.429 73.4 242.989 75.36C242.549 77.32 242.169 79.24 241.849 81.12C241.569 82.96 241.429 84.62 241.429 86.1C241.429 87.3 241.569 88.38 241.849 89.34C242.169 90.26 242.649 91 243.289 91.56C241.049 93.52 238.669 94.5 236.149 94.5C233.589 94.5 231.809 93.92 230.809 92.76C229.809 91.6 229.309 90.22 229.309 88.62L228.709 88.32C227.389 90.28 225.549 91.8 223.189 92.88C220.829 93.96 218.329 94.5 215.689 94.5ZM258.209 94.5C255.769 94.5 254.029 93.86 252.989 92.58C251.949 91.3 251.429 89.46 251.429 87.06C251.429 86.22 251.549 84.94 251.789 83.22C252.029 81.46 252.329 79.52 252.689 77.4C253.089 75.24 253.509 73.08 253.949 70.92C254.389 68.76 254.809 66.84 255.209 65.16L252.089 60.36C254.169 59.44 256.089 58.66 257.849 58.02C259.649 57.34 261.249 57 262.649 57C263.689 57 264.449 57.36 264.929 58.08C265.409 58.8 265.649 59.72 265.649 60.84C265.649 62.12 265.429 63.56 264.989 65.16C264.549 66.72 264.109 68.2 263.669 69.6L264.269 69.9C265.669 65.78 267.249 62.6 269.009 60.36C270.809 58.12 272.809 57 275.009 57C276.449 57 277.609 57.32 278.489 57.96C279.369 58.56 280.009 59.32 280.409 60.24C280.849 61.12 281.069 61.98 281.069 62.82C281.069 64.14 280.729 65.42 280.049 66.66C279.409 67.86 278.369 68.86 276.929 69.66C275.489 70.42 273.589 70.8 271.229 70.8C270.309 70.8 269.409 71 268.529 71.4C267.649 71.8 266.849 72.56 266.129 73.68C265.409 74.76 264.829 76.3 264.389 78.3C263.989 80.3 263.789 82.9 263.789 86.1C263.789 88.58 264.209 90.4 265.049 91.56C262.569 93.52 260.289 94.5 258.209 94.5ZM296.807 94.5C292.807 94.5 289.927 93.88 288.167 92.64C286.447 91.36 285.587 89.28 285.587 86.4C285.587 83.76 285.627 80.94 285.707 77.94C285.787 74.9 285.827 72.22 285.827 69.9C285.827 67.18 285.507 65.02 284.867 63.42C284.267 61.78 283.507 60.5 282.587 59.58C284.667 57.86 286.947 57 289.427 57C291.667 57 293.367 57.66 294.527 58.98C295.687 60.26 296.467 62.02 296.867 64.26C297.307 66.5 297.527 69 297.527 71.76C297.527 73.24 297.507 74.92 297.467 76.8C297.467 78.64 297.447 80.48 297.407 82.32C297.367 84.12 297.307 85.74 297.227 87.18H299.267C300.147 85.3 301.107 83.24 302.147 81C303.187 78.72 304.187 76.42 305.147 74.1C306.107 71.74 306.887 69.54 307.487 67.5C308.087 65.42 308.387 63.68 308.387 62.28C308.387 61.72 308.327 61.22 308.207 60.78C308.127 60.34 308.007 59.94 307.847 59.58C309.367 58.7 310.807 58.06 312.167 57.66C313.567 57.22 314.807 57 315.887 57C317.607 57 318.807 57.52 319.487 58.56C320.207 59.6 320.567 60.96 320.567 62.64C320.567 64.08 320.247 65.8 319.607 67.8C319.007 69.8 318.247 71.9 317.327 74.1C316.407 76.26 315.487 78.34 314.567 80.34C313.647 82.3 312.907 83.98 312.347 85.38L313.127 88.86C312.047 89.82 310.607 90.74 308.807 91.62C307.047 92.46 305.107 93.14 302.987 93.66C300.907 94.22 298.847 94.5 296.807 94.5ZM333.054 94.5C330.614 94.5 328.874 93.74 327.834 92.22C326.794 90.7 326.274 88.38 326.274 85.26C326.274 84.38 326.374 83.08 326.574 81.36C326.814 79.64 327.114 77.68 327.474 75.48C327.834 73.28 328.234 71 328.674 68.64C329.114 66.24 329.534 63.92 329.934 61.68C330.334 59.44 330.694 57.44 331.014 55.68L327.654 50.88C329.774 49.64 331.794 48.6 333.714 47.76C335.634 46.92 337.554 46.5 339.474 46.5C341.154 46.5 342.314 46.84 342.954 47.52C343.634 48.16 343.974 49.24 343.974 50.76C343.974 52.16 343.794 53.92 343.434 56.04C343.074 58.12 342.634 60.4 342.114 62.88C341.594 65.32 341.054 67.84 340.494 70.44C339.974 73.04 339.534 75.54 339.174 77.94C338.814 80.34 338.634 82.52 338.634 84.48C338.634 86.04 338.774 87.44 339.054 88.68C339.374 89.88 339.854 90.84 340.494 91.56C337.694 93.52 335.214 94.5 333.054 94.5ZM357.46 107.1C354.7 107.1 352.38 106.5 350.5 105.3C348.62 104.1 347.68 102.42 347.68 100.26C347.68 99.38 347.86 98.44 348.22 97.44C348.58 96.44 349.14 95.38 349.9 94.26C350.82 95.58 351.92 96.58 353.2 97.26C354.48 97.98 355.78 98.34 357.1 98.34C358.66 98.34 360.16 97.82 361.6 96.78C363.04 95.74 364.2 94.08 365.08 91.8C364.08 92.16 363.14 92.42 362.26 92.58C361.38 92.74 360.54 92.82 359.74 92.82C357.66 92.82 355.98 92.28 354.7 91.2C353.42 90.08 352.68 88.48 352.48 86.4C352.2 83.76 352.02 81.02 351.94 78.18C351.86 75.34 351.7 72.76 351.46 70.44C351.18 67.72 350.6 65.46 349.72 63.66C348.84 61.86 347.82 60.5 346.66 59.58C347.62 58.7 348.62 58.06 349.66 57.66C350.74 57.22 352.1 57 353.74 57C355.74 57 357.36 57.6 358.6 58.8C359.88 60 360.86 61.7 361.54 63.9C362.22 66.06 362.68 68.6 362.92 71.52C363.2 74.4 363.34 77.54 363.34 80.94C363.34 81.42 363.32 82.16 363.28 83.16C363.28 84.16 363.24 85.16 363.16 86.16H366.64C367.28 84.4 367.96 82.52 368.68 80.52C369.4 78.52 370.06 76.5 370.66 74.46C371.3 72.38 371.82 70.4 372.22 68.52C372.62 66.6 372.82 64.9 372.82 63.42C372.82 62.54 372.72 61.8 372.52 61.2C372.36 60.6 372.16 60.06 371.92 59.58C373.32 58.7 374.7 58.06 376.06 57.66C377.42 57.22 378.64 57 379.72 57C381.56 57 382.9 57.62 383.74 58.86C384.62 60.1 385.06 61.72 385.06 63.72C385.06 65.2 384.84 66.92 384.4 68.88C383.96 70.8 383.4 72.8 382.72 74.88C382.08 76.92 381.42 78.86 380.74 80.7C380.1 82.54 379.56 84.1 379.12 85.38C377.2 90.9 375.04 95.24 372.64 98.4C370.28 101.56 367.8 103.8 365.2 105.12C362.64 106.44 360.06 107.1 357.46 107.1Z" fill="#63A9E6"/>
<defs>
<filter id="filter0_f_34_17" x="-130" y="-130" width="2180" height="1340" filterUnits="userSpaceOnUse" color-interpolation-filters="sRGB">
<feFlood flood-opacity="0" result="BackgroundImageFix"/>
<feBlend mode="normal" in="SourceGraphic" in2="BackgroundImageFix" result="shape"/>
<feGaussianBlur stdDeviation="65" result="effect1_foregroundBlur_34_17"/>
</filter>
<filter id="filter1_d_34_17" x="84.2002" y="56" width="38.9648" height="42.375" filterUnits="userSpaceOnUse" color-interpolation-filters="sRGB">
<feFlood flood-opacity="0" result="BackgroundImageFix"/>
<feColorMatrix in="SourceAlpha" type="matrix" values="0 0 0 0 0 0 0 0 0 0 0 0 0 0 0 0 0 0 127 0" result="hardAlpha"/>
<feOffset dy="4"/>
<feGaussianBlur stdDeviation="2"/>
<feComposite in2="hardAlpha" operator="out"/>
<feColorMatrix type="matrix" values="0 0 0 0 0 0 0 0 0 0 0 0 0 0 0 0 0 0 0.25 0"/>
<feBlend mode="normal" in2="BackgroundImageFix" result="effect1_dropShadow_34_17"/>
<feBlend mode="normal" in="SourceGraphic" in2="effect1_dropShadow_34_17" result="shape"/>
</filter>
</defs>
</svg>
