<svg width="404" height="131" viewBox="0 0 404 131" fill="none" xmlns="http://www.w3.org/2000/svg">
<g filter="url(#filter0_ddii_36_2)">
<rect x="30" y="30" width="344" height="71" rx="35.5" fill="#E8EEFF"/>
<path d="M130.92 55.61H137.88V57.65H130.92V55.61ZM136.83 50.69H139.32V64.7H136.83V50.69ZM121.86 66.08H139.32V72.59H124.35V76.7H121.92V70.7H136.86V68.06H121.86V66.08ZM121.92 75.47H140.31V77.48H121.92V75.47ZM123.78 51.56H125.79V54.08C125.79 55.74 125.48 57.29 124.86 58.73C124.24 60.15 123.37 61.38 122.25 62.42C121.13 63.44 119.81 64.22 118.29 64.76L116.97 62.78C118.33 62.32 119.52 61.66 120.54 60.8C121.56 59.94 122.35 58.94 122.91 57.8C123.49 56.64 123.78 55.4 123.78 54.08V51.56ZM124.17 51.56H126.21V54.08C126.21 54.96 126.37 55.82 126.69 56.66C127.01 57.48 127.46 58.25 128.04 58.97C128.64 59.69 129.35 60.33 130.17 60.89C130.99 61.43 131.89 61.86 132.87 62.18L131.55 64.13C130.09 63.61 128.8 62.86 127.68 61.88C126.58 60.88 125.72 59.72 125.1 58.4C124.48 57.06 124.17 55.62 124.17 54.08V51.56ZM144.568 64.55H169.168V66.59H144.568V64.55ZM155.788 65.84H158.278V72.08H155.788V65.84ZM147.748 51.98H165.958V61.49H147.748V51.98ZM163.528 53.96H150.178V59.51H163.528V53.96ZM147.688 75.2H166.438V77.24H147.688V75.2ZM147.688 69.47H150.178V75.89H147.688V69.47ZM190.585 50.69H193.045V77.84H190.585V50.69ZM192.475 61.85H197.485V63.95H192.475V61.85ZM172.045 55.04H188.035V57.08H172.045V55.04ZM180.175 59.3C181.455 59.3 182.585 59.57 183.565 60.11C184.565 60.65 185.345 61.39 185.905 62.33C186.485 63.25 186.775 64.32 186.775 65.54C186.775 66.76 186.485 67.84 185.905 68.78C185.345 69.72 184.565 70.46 183.565 71C182.585 71.52 181.455 71.78 180.175 71.78C178.895 71.78 177.755 71.52 176.755 71C175.775 70.46 174.995 69.72 174.415 68.78C173.835 67.84 173.545 66.76 173.545 65.54C173.545 64.32 173.835 63.25 174.415 62.33C174.995 61.39 175.775 60.65 176.755 60.11C177.755 59.57 178.895 59.3 180.175 59.3ZM180.175 61.37C179.355 61.37 178.625 61.55 177.985 61.91C177.345 62.27 176.835 62.76 176.455 63.38C176.095 64 175.915 64.72 175.915 65.54C175.915 66.36 176.095 67.09 176.455 67.73C176.835 68.35 177.345 68.84 177.985 69.2C178.625 69.54 179.355 69.71 180.175 69.71C180.975 69.71 181.695 69.54 182.335 69.2C182.975 68.84 183.475 68.35 183.835 67.73C184.215 67.09 184.405 66.36 184.405 65.54C184.405 64.72 184.215 64 183.835 63.38C183.475 62.76 182.975 62.27 182.335 61.91C181.695 61.55 180.975 61.37 180.175 61.37ZM178.885 51.02H181.375V55.94H178.885V51.02ZM219.623 50.69H222.083V77.87H219.623V50.69ZM214.463 61.1H220.223V63.17H214.463V61.1ZM200.813 69.26H202.883C204.483 69.26 205.953 69.24 207.293 69.2C208.633 69.16 209.933 69.08 211.193 68.96C212.453 68.84 213.743 68.65 215.063 68.39L215.273 70.46C213.913 70.7 212.593 70.89 211.313 71.03C210.053 71.15 208.733 71.24 207.353 71.3C205.993 71.34 204.503 71.36 202.883 71.36H200.813V69.26ZM200.723 53.21H212.843V62.72H203.273V69.92H200.813V60.68H210.413V55.25H200.723V53.21ZM252.606 50.69H255.096V77.81H252.606V50.69ZM254.436 61.7H259.416V63.77H254.436V61.7ZM245.676 53.6H248.106C248.106 56.18 247.686 58.65 246.846 61.01C246.006 63.35 244.686 65.52 242.886 67.52C241.086 69.5 238.716 71.22 235.776 72.68L234.396 70.76C236.916 69.5 239.006 68.03 240.666 66.35C242.346 64.65 243.596 62.77 244.416 60.71C245.256 58.63 245.676 56.39 245.676 53.99V53.6ZM235.656 53.6H246.936V55.67H235.656V53.6ZM281.614 50.69H284.104V77.84H281.614V50.69ZM273.664 53.63H276.124C276.124 55.59 275.884 57.48 275.404 59.3C274.944 61.12 274.214 62.85 273.214 64.49C272.214 66.11 270.914 67.62 269.314 69.02C267.714 70.42 265.774 71.67 263.494 72.77L262.174 70.76C264.794 69.5 266.954 68.03 268.654 66.35C270.354 64.67 271.614 62.8 272.434 60.74C273.254 58.66 273.664 56.42 273.664 54.02V53.63ZM263.434 53.63H274.714V55.64H263.434V53.63Z" fill="#7894A8"/>
</g>
<defs>
<filter id="filter0_ddii_36_2" x="0" y="0" width="404" height="131" filterUnits="userSpaceOnUse" color-interpolation-filters="sRGB">
<feFlood flood-opacity="0" result="BackgroundImageFix"/>
<feColorMatrix in="SourceAlpha" type="matrix" values="0 0 0 0 0 0 0 0 0 0 0 0 0 0 0 0 0 0 127 0" result="hardAlpha"/>
<feMorphology radius="7.96791" operator="dilate" in="SourceAlpha" result="effect1_dropShadow_36_2"/>
<feOffset/>
<feGaussianBlur stdDeviation="0.995989"/>
<feComposite in2="hardAlpha" operator="out"/>
<feColorMatrix type="matrix" values="0 0 0 0 1 0 0 0 0 1 0 0 0 0 1 0 0 0 0.1 0"/>
<feBlend mode="normal" in2="BackgroundImageFix" result="effect1_dropShadow_36_2"/>
<feColorMatrix in="SourceAlpha" type="matrix" values="0 0 0 0 0 0 0 0 0 0 0 0 0 0 0 0 0 0 127 0" result="hardAlpha"/>
<feOffset/>
<feGaussianBlur stdDeviation="15"/>
<feComposite in2="hardAlpha" operator="out"/>
<feColorMatrix type="matrix" values="0 0 0 0 1 0 0 0 0 1 0 0 0 0 1 0 0 0 1 0"/>
<feBlend mode="normal" in2="effect1_dropShadow_36_2" result="effect2_dropShadow_36_2"/>
<feBlend mode="normal" in="SourceGraphic" in2="effect2_dropShadow_36_2" result="shape"/>
<feColorMatrix in="SourceAlpha" type="matrix" values="0 0 0 0 0 0 0 0 0 0 0 0 0 0 0 0 0 0 127 0" result="hardAlpha"/>
<feOffset dy="3.98396"/>
<feGaussianBlur stdDeviation="0.995989"/>
<feComposite in2="hardAlpha" operator="arithmetic" k2="-1" k3="1"/>
<feColorMatrix type="matrix" values="0 0 0 0 1 0 0 0 0 1 0 0 0 0 1 0 0 0 0.25 0"/>
<feBlend mode="normal" in2="shape" result="effect3_innerShadow_36_2"/>
<feColorMatrix in="SourceAlpha" type="matrix" values="0 0 0 0 0 0 0 0 0 0 0 0 0 0 0 0 0 0 127 0" result="hardAlpha"/>
<feOffset dy="-7.96791"/>
<feGaussianBlur stdDeviation="1.99198"/>
<feComposite in2="hardAlpha" operator="arithmetic" k2="-1" k3="1"/>
<feColorMatrix type="matrix" values="0 0 0 0 0 0 0 0 0 0 0 0 0 0 0 0 0 0 0.25 0"/>
<feBlend mode="normal" in2="effect3_innerShadow_36_2" result="effect4_innerShadow_36_2"/>
</filter>
</defs>
</svg>
