<svg width="482" height="147" viewBox="0 0 482 147" fill="none" xmlns="http://www.w3.org/2000/svg">
<g filter="url(#filter0_ddii_17_69032)">
<rect x="30" y="30" width="422" height="87" rx="43.5" fill="#E8EEFF"/>
<path d="M151.473 61.3821H160.262V63.9583H151.473V61.3821ZM158.936 55.169H162.081V72.8613H158.936V55.169ZM140.032 74.6041H162.081V82.8251H143.176V88.0154H140.107V80.4384H158.974V77.1045H140.032V74.6041ZM140.107 86.4621H163.331V89.0004H140.107V86.4621ZM142.456 56.2676H144.995V59.45C144.995 61.5463 144.603 63.5037 143.82 65.3222C143.037 67.1154 141.939 68.6687 140.524 69.9821C139.11 71.2702 137.443 72.2552 135.523 72.9371L133.856 70.4367C135.574 69.8558 137.077 69.0223 138.365 67.9363C139.653 66.8502 140.65 65.5874 141.358 64.1477C142.09 62.6829 142.456 61.1169 142.456 59.45V56.2676ZM142.949 56.2676H145.525V59.45C145.525 60.5613 145.727 61.6473 146.131 62.7081C146.535 63.7436 147.104 64.716 147.836 65.6253C148.594 66.5345 149.49 67.3427 150.526 68.0499C151.561 68.7319 152.698 69.2749 153.936 69.679L152.269 72.1415C150.425 71.4848 148.796 70.5377 147.381 69.3001C145.992 68.0373 144.906 66.5724 144.123 64.9054C143.34 63.2132 142.949 61.3948 142.949 59.45V56.2676ZM168.708 72.6719H199.774V75.2481H168.708V72.6719ZM182.877 74.301H186.021V82.1811H182.877V74.301ZM172.724 56.798H195.72V68.8076H172.724V56.798ZM192.651 59.2984H175.792V66.3072H192.651V59.2984ZM172.648 86.1211H196.326V88.6973H172.648V86.1211ZM172.648 78.8851H175.792V86.9925H172.648V78.8851ZM226.821 55.169H229.927V89.455H226.821V55.169ZM229.207 69.2622H235.534V71.9142H229.207V69.2622ZM203.408 60.6623H223.6V63.2385H203.408V60.6623ZM213.675 66.042C215.291 66.042 216.718 66.383 217.956 67.0649C219.218 67.7468 220.203 68.6813 220.911 69.8684C221.643 71.0302 222.009 72.3815 222.009 73.9221C222.009 75.4628 221.643 76.8267 220.911 78.0137C220.203 79.2008 219.218 80.1353 217.956 80.8172C216.718 81.4739 215.291 81.8022 213.675 81.8022C212.058 81.8022 210.618 81.4739 209.356 80.8172C208.118 80.1353 207.133 79.2008 206.401 78.0137C205.668 76.8267 205.302 75.4628 205.302 73.9221C205.302 72.3815 205.668 71.0302 206.401 69.8684C207.133 68.6813 208.118 67.7468 209.356 67.0649C210.618 66.383 212.058 66.042 213.675 66.042ZM213.675 68.6561C212.639 68.6561 211.717 68.8834 210.909 69.338C210.101 69.7926 209.457 70.4114 208.977 71.1944C208.522 71.9773 208.295 72.8866 208.295 73.9221C208.295 74.9576 208.522 75.8795 208.977 76.6877C209.457 77.4707 210.101 78.0895 210.909 78.5441C211.717 78.9735 212.639 79.1882 213.675 79.1882C214.685 79.1882 215.594 78.9735 216.402 78.5441C217.21 78.0895 217.842 77.4707 218.297 76.6877C218.776 75.8795 219.016 74.9576 219.016 73.9221C219.016 72.8866 218.776 71.9773 218.297 71.1944C217.842 70.4114 217.21 69.7926 216.402 69.338C215.594 68.8834 214.685 68.6561 213.675 68.6561ZM212.045 55.5857H215.19V61.7989H212.045V55.5857ZM263.491 55.169H266.597V89.4929H263.491V55.169ZM256.974 68.3151H264.248V70.9292H256.974V68.3151ZM239.737 78.6199H242.351C244.371 78.6199 246.228 78.5946 247.92 78.5441C249.612 78.4936 251.254 78.3926 252.845 78.241C254.436 78.0895 256.065 77.8496 257.732 77.5212L257.997 80.1353C256.28 80.4384 254.613 80.6783 252.996 80.8551C251.405 81.0066 249.738 81.1203 247.996 81.1961C246.278 81.2466 244.396 81.2718 242.351 81.2718H239.737V78.6199ZM239.623 58.3513H254.929V70.3609H242.843V79.4534H239.737V67.7847H251.86V60.9275H239.623V58.3513ZM305.143 55.169H308.287V89.4172H305.143V55.169ZM307.454 69.0728H313.743V71.6869H307.454V69.0728ZM296.391 58.8438H299.46C299.46 62.1019 298.93 65.2212 297.869 68.2015C296.808 71.1565 295.141 73.8969 292.868 76.4225C290.595 78.923 287.602 81.095 283.889 82.9388L282.147 80.5141C285.329 78.923 287.968 77.0666 290.065 74.945C292.186 72.7982 293.765 70.4241 294.8 67.8226C295.861 65.1959 296.391 62.3671 296.391 59.3363V58.8438ZM283.738 58.8438H297.983V61.4579H283.738V58.8438ZM341.775 55.169H344.919V89.455H341.775V55.169ZM331.735 58.8817H334.842C334.842 61.3569 334.539 63.7436 333.933 66.042C333.352 68.3404 332.43 70.5251 331.167 72.5961C329.904 74.6419 328.263 76.5488 326.242 78.3168C324.221 80.0848 321.772 81.6633 318.892 83.0524L317.225 80.5141C320.534 78.923 323.262 77.0666 325.409 74.945C327.555 72.8235 329.147 70.4619 330.182 67.8605C331.218 65.2338 331.735 62.405 331.735 59.3742V58.8817ZM318.817 58.8817H333.061V61.42H318.817V58.8817Z" fill="#7894A8"/>
</g>
<defs>
<filter id="filter0_ddii_17_69032" x="0" y="0" width="482" height="147" filterUnits="userSpaceOnUse" color-interpolation-filters="sRGB">
<feFlood flood-opacity="0" result="BackgroundImageFix"/>
<feColorMatrix in="SourceAlpha" type="matrix" values="0 0 0 0 0 0 0 0 0 0 0 0 0 0 0 0 0 0 127 0" result="hardAlpha"/>
<feMorphology radius="7.96791" operator="dilate" in="SourceAlpha" result="effect1_dropShadow_17_69032"/>
<feOffset/>
<feGaussianBlur stdDeviation="0.995989"/>
<feComposite in2="hardAlpha" operator="out"/>
<feColorMatrix type="matrix" values="0 0 0 0 1 0 0 0 0 1 0 0 0 0 1 0 0 0 0.1 0"/>
<feBlend mode="normal" in2="BackgroundImageFix" result="effect1_dropShadow_17_69032"/>
<feColorMatrix in="SourceAlpha" type="matrix" values="0 0 0 0 0 0 0 0 0 0 0 0 0 0 0 0 0 0 127 0" result="hardAlpha"/>
<feOffset/>
<feGaussianBlur stdDeviation="15"/>
<feComposite in2="hardAlpha" operator="out"/>
<feColorMatrix type="matrix" values="0 0 0 0 1 0 0 0 0 1 0 0 0 0 1 0 0 0 1 0"/>
<feBlend mode="normal" in2="effect1_dropShadow_17_69032" result="effect2_dropShadow_17_69032"/>
<feBlend mode="normal" in="SourceGraphic" in2="effect2_dropShadow_17_69032" result="shape"/>
<feColorMatrix in="SourceAlpha" type="matrix" values="0 0 0 0 0 0 0 0 0 0 0 0 0 0 0 0 0 0 127 0" result="hardAlpha"/>
<feOffset dy="3.98396"/>
<feGaussianBlur stdDeviation="0.995989"/>
<feComposite in2="hardAlpha" operator="arithmetic" k2="-1" k3="1"/>
<feColorMatrix type="matrix" values="0 0 0 0 1 0 0 0 0 1 0 0 0 0 1 0 0 0 0.25 0"/>
<feBlend mode="normal" in2="shape" result="effect3_innerShadow_17_69032"/>
<feColorMatrix in="SourceAlpha" type="matrix" values="0 0 0 0 0 0 0 0 0 0 0 0 0 0 0 0 0 0 127 0" result="hardAlpha"/>
<feOffset dy="-7.96791"/>
<feGaussianBlur stdDeviation="1.99198"/>
<feComposite in2="hardAlpha" operator="arithmetic" k2="-1" k3="1"/>
<feColorMatrix type="matrix" values="0 0 0 0 0 0 0 0 0 0 0 0 0 0 0 0 0 0 0.25 0"/>
<feBlend mode="normal" in2="effect3_innerShadow_17_69032" result="effect4_innerShadow_17_69032"/>
</filter>
</defs>
</svg>
