<svg width="347" height="85" viewBox="0 0 347 85" fill="none" xmlns="http://www.w3.org/2000/svg">
<rect y="8" width="66" height="74" rx="10" fill="#65B7FF"/>
<g filter="url(#filter0_d_38_8)">
<path d="M31.115 62.375C27.6683 62.375 24.9183 62.1 22.865 61.55C20.8483 61.0367 19.4 60.3217 18.52 59.405C17.64 58.4883 17.2 57.48 17.2 56.38C17.2 55.5367 17.42 54.565 17.86 53.465C18.3367 52.365 19.015 51.32 19.895 50.33C20.5183 51.1733 21.3433 51.9617 22.37 52.695C23.4333 53.3917 24.5883 53.96 25.835 54.4C27.0817 54.8033 28.2917 55.005 29.465 55.005C30.7483 55.005 31.9033 54.7117 32.93 54.125C33.9567 53.5017 34.635 52.4567 34.965 50.99C29.3183 50.33 25.2667 49.0833 22.81 47.25C20.3533 45.38 19.125 42.795 19.125 39.495C19.125 37.405 19.62 35.6267 20.61 34.16C21.6 32.6933 22.92 31.52 24.57 30.64C26.2567 29.7233 28.1633 29.0633 30.29 28.66C32.4533 28.22 34.69 28 37 28C39.1633 28 41.0883 28.2933 42.775 28.88C44.4617 29.43 45.7817 30.1817 46.735 31.135C47.6883 32.0883 48.165 33.1883 48.165 34.435C48.165 36.195 47.5233 37.5333 46.24 38.45C44.9933 39.3667 43.5633 39.825 41.95 39.825C40.85 39.825 39.695 39.4583 38.485 38.725C37.275 37.9917 36.3033 36.855 35.57 35.315C34.2133 35.7183 33.1317 36.305 32.325 37.075C31.5183 37.8083 30.8033 38.8717 30.18 40.265C34.36 40.8883 37.6783 41.6767 40.135 42.63C42.5917 43.5833 44.3517 44.7933 45.415 46.26C46.515 47.69 47.065 49.4683 47.065 51.595C47.065 53.2817 46.68 54.7483 45.91 55.995C45.1767 57.2417 44.205 58.2683 42.995 59.075C41.785 59.8817 40.465 60.5233 39.035 61C37.605 61.5133 36.1933 61.8617 34.8 62.045C33.4067 62.265 32.1783 62.375 31.115 62.375Z" fill="#DBF7FF"/>
</g>
<rect x="18" width="30" height="15" rx="7.5" fill="#E0F8FF"/>
<path d="M109.8 66.5C106.2 66.5 103.24 66.24 100.92 65.72C98.6 65.24 96.8 64.56 95.52 63.68C94.24 62.8 93.34 61.8 92.82 60.68C92.34 59.52 92.1 58.3 92.1 57.02C92.1 55.82 92.28 54.62 92.64 53.42C93.04 52.22 93.72 50.98 94.68 49.7C95.24 50.86 96.16 51.98 97.44 53.06C98.72 54.14 100.16 55.02 101.76 55.7C103.4 56.38 105 56.72 106.56 56.72C108.64 56.72 110.36 56.4 111.72 55.76C113.12 55.08 114.12 54.04 114.72 52.64C107.92 51.72 102.82 49.84 99.42 47C96.02 44.12 94.32 40.74 94.32 36.86C94.32 34.58 94.78 32.58 95.7 30.86C96.66 29.14 97.92 27.7 99.48 26.54C101.04 25.34 102.74 24.38 104.58 23.66C106.42 22.9 108.24 22.36 110.04 22.04C111.84 21.68 113.44 21.5 114.84 21.5C119.92 21.5 123.82 22.1 126.54 23.3C129.3 24.46 130.68 26.52 130.68 29.48C130.68 31.2 130.28 32.64 129.48 33.8C128.72 34.96 127.7 35.84 126.42 36.44C125.18 37 123.82 37.28 122.34 37.28C120.58 37.28 118.86 36.78 117.18 35.78C115.5 34.74 114.32 33.3 113.64 31.46C112.24 31.46 110.86 31.94 109.5 32.9C108.14 33.82 107.26 35.1 106.86 36.74C112.18 38.02 116.46 39.44 119.7 41C122.98 42.56 125.36 44.32 126.84 46.28C128.32 48.24 129.06 50.48 129.06 53C129.06 55.92 128.2 58.38 126.48 60.38C124.76 62.38 122.44 63.9 119.52 64.94C116.64 65.98 113.4 66.5 109.8 66.5ZM144.689 66.5C142.209 66.5 140.269 66.06 138.869 65.18C137.509 64.34 136.549 63.2 135.989 61.76C135.469 60.28 135.209 58.62 135.209 56.78C135.209 54.66 135.429 52.44 135.869 50.12C136.309 47.76 136.749 45.48 137.189 43.28C137.629 41.04 137.849 39.08 137.849 37.4C137.849 34.92 137.429 33.1 136.589 31.94C138.229 31.06 139.929 30.36 141.689 29.84C143.489 29.28 144.929 29 146.009 29C147.649 29 148.829 29.34 149.549 30.02C150.309 30.66 150.689 31.74 150.689 33.26C150.689 34.1 150.569 35.26 150.329 36.74C150.089 38.18 149.789 39.76 149.429 41.48C149.069 43.2 148.689 44.94 148.289 46.7C147.929 48.42 147.629 49.98 147.389 51.38C147.149 52.78 147.029 53.88 147.029 54.68C147.029 56.16 147.409 57.28 148.169 58.04C148.969 58.8 149.929 59.18 151.049 59.18C152.329 59.18 153.669 58.7 155.069 57.74C156.469 56.78 157.629 55.38 158.549 53.54C158.709 52.66 158.909 51.56 159.149 50.24C159.429 48.92 159.729 47.52 160.049 46.04C160.409 44.52 160.729 43.08 161.009 41.72C161.329 40.32 161.609 39.14 161.849 38.18L158.249 33.38C159.969 32.14 161.809 31.1 163.769 30.26C165.729 29.42 167.729 29 169.769 29C171.569 29 172.849 29.34 173.609 30.02C174.409 30.66 174.809 31.74 174.809 33.26C174.809 34.1 174.649 35.26 174.329 36.74C174.049 38.22 173.689 39.88 173.249 41.72C172.849 43.52 172.429 45.4 171.989 47.36C171.549 49.32 171.169 51.24 170.849 53.12C170.569 54.96 170.429 56.62 170.429 58.1C170.429 59.3 170.569 60.38 170.849 61.34C171.169 62.26 171.649 63 172.289 63.56C170.049 65.52 167.669 66.5 165.149 66.5C162.589 66.5 160.809 65.92 159.809 64.76C158.809 63.6 158.309 62.22 158.309 60.62L157.709 60.32C156.389 62.28 154.549 63.8 152.189 64.88C149.829 65.96 147.329 66.5 144.689 66.5ZM187.209 66.5C184.769 66.5 183.029 65.86 181.989 64.58C180.949 63.3 180.429 61.46 180.429 59.06C180.429 58.22 180.549 56.94 180.789 55.22C181.029 53.46 181.329 51.52 181.689 49.4C182.089 47.24 182.509 45.08 182.949 42.92C183.389 40.76 183.809 38.84 184.209 37.16L181.089 32.36C183.169 31.44 185.089 30.66 186.849 30.02C188.649 29.34 190.249 29 191.649 29C192.689 29 193.449 29.36 193.929 30.08C194.409 30.8 194.649 31.72 194.649 32.84C194.649 34.12 194.429 35.56 193.989 37.16C193.549 38.72 193.109 40.2 192.669 41.6L193.269 41.9C194.669 37.78 196.249 34.6 198.009 32.36C199.809 30.12 201.809 29 204.009 29C205.449 29 206.609 29.32 207.489 29.96C208.369 30.56 209.009 31.32 209.409 32.24C209.849 33.12 210.069 33.98 210.069 34.82C210.069 36.14 209.729 37.42 209.049 38.66C208.409 39.86 207.369 40.86 205.929 41.66C204.489 42.42 202.589 42.8 200.229 42.8C199.309 42.8 198.409 43 197.529 43.4C196.649 43.8 195.849 44.56 195.129 45.68C194.409 46.76 193.829 48.3 193.389 50.3C192.989 52.3 192.789 54.9 192.789 58.1C192.789 60.58 193.209 62.4 194.049 63.56C191.569 65.52 189.289 66.5 187.209 66.5ZM225.807 66.5C221.807 66.5 218.927 65.88 217.167 64.64C215.447 63.36 214.587 61.28 214.587 58.4C214.587 55.76 214.627 52.94 214.707 49.94C214.787 46.9 214.827 44.22 214.827 41.9C214.827 39.18 214.507 37.02 213.867 35.42C213.267 33.78 212.507 32.5 211.587 31.58C213.667 29.86 215.947 29 218.427 29C220.667 29 222.367 29.66 223.527 30.98C224.687 32.26 225.467 34.02 225.867 36.26C226.307 38.5 226.527 41 226.527 43.76C226.527 45.24 226.507 46.92 226.467 48.8C226.467 50.64 226.447 52.48 226.407 54.32C226.367 56.12 226.307 57.74 226.227 59.18H228.267C229.147 57.3 230.107 55.24 231.147 53C232.187 50.72 233.187 48.42 234.147 46.1C235.107 43.74 235.887 41.54 236.487 39.5C237.087 37.42 237.387 35.68 237.387 34.28C237.387 33.72 237.327 33.22 237.207 32.78C237.127 32.34 237.007 31.94 236.847 31.58C238.367 30.7 239.807 30.06 241.167 29.66C242.567 29.22 243.807 29 244.887 29C246.607 29 247.807 29.52 248.487 30.56C249.207 31.6 249.567 32.96 249.567 34.64C249.567 36.08 249.247 37.8 248.607 39.8C248.007 41.8 247.247 43.9 246.327 46.1C245.407 48.26 244.487 50.34 243.567 52.34C242.647 54.3 241.907 55.98 241.347 57.38L242.127 60.86C241.047 61.82 239.607 62.74 237.807 63.62C236.047 64.46 234.107 65.14 231.987 65.66C229.907 66.22 227.847 66.5 225.807 66.5ZM262.054 66.5C259.614 66.5 257.874 65.74 256.834 64.22C255.794 62.7 255.274 60.38 255.274 57.26C255.274 56.38 255.374 55.08 255.574 53.36C255.814 51.64 256.114 49.68 256.474 47.48C256.834 45.28 257.234 43 257.674 40.64C258.114 38.24 258.534 35.92 258.934 33.68C259.334 31.44 259.694 29.44 260.014 27.68L256.654 22.88C258.774 21.64 260.794 20.6 262.714 19.76C264.634 18.92 266.554 18.5 268.474 18.5C270.154 18.5 271.314 18.84 271.954 19.52C272.634 20.16 272.974 21.24 272.974 22.76C272.974 24.16 272.794 25.92 272.434 28.04C272.074 30.12 271.634 32.4 271.114 34.88C270.594 37.32 270.054 39.84 269.494 42.44C268.974 45.04 268.534 47.54 268.174 49.94C267.814 52.34 267.634 54.52 267.634 56.48C267.634 58.04 267.774 59.44 268.054 60.68C268.374 61.88 268.854 62.84 269.494 63.56C266.694 65.52 264.214 66.5 262.054 66.5ZM286.46 79.1C283.7 79.1 281.38 78.5 279.5 77.3C277.62 76.1 276.68 74.42 276.68 72.26C276.68 71.38 276.86 70.44 277.22 69.44C277.58 68.44 278.14 67.38 278.9 66.26C279.82 67.58 280.92 68.58 282.2 69.26C283.48 69.98 284.78 70.34 286.1 70.34C287.66 70.34 289.16 69.82 290.6 68.78C292.04 67.74 293.2 66.08 294.08 63.8C293.08 64.16 292.14 64.42 291.26 64.58C290.38 64.74 289.54 64.82 288.74 64.82C286.66 64.82 284.98 64.28 283.7 63.2C282.42 62.08 281.68 60.48 281.48 58.4C281.2 55.76 281.02 53.02 280.94 50.18C280.86 47.34 280.7 44.76 280.46 42.44C280.18 39.72 279.6 37.46 278.72 35.66C277.84 33.86 276.82 32.5 275.66 31.58C276.62 30.7 277.62 30.06 278.66 29.66C279.74 29.22 281.1 29 282.74 29C284.74 29 286.36 29.6 287.6 30.8C288.88 32 289.86 33.7 290.54 35.9C291.22 38.06 291.68 40.6 291.92 43.52C292.2 46.4 292.34 49.54 292.34 52.94C292.34 53.42 292.32 54.16 292.28 55.16C292.28 56.16 292.24 57.16 292.16 58.16H295.64C296.28 56.4 296.96 54.52 297.68 52.52C298.4 50.52 299.06 48.5 299.66 46.46C300.3 44.38 300.82 42.4 301.22 40.52C301.62 38.6 301.82 36.9 301.82 35.42C301.82 34.54 301.72 33.8 301.52 33.2C301.36 32.6 301.16 32.06 300.92 31.58C302.32 30.7 303.7 30.06 305.06 29.66C306.42 29.22 307.64 29 308.72 29C310.56 29 311.9 29.62 312.74 30.86C313.62 32.1 314.06 33.72 314.06 35.72C314.06 37.2 313.84 38.92 313.4 40.88C312.96 42.8 312.4 44.8 311.72 46.88C311.08 48.92 310.42 50.86 309.74 52.7C309.1 54.54 308.56 56.1 308.12 57.38C306.2 62.9 304.04 67.24 301.64 70.4C299.28 73.56 296.8 75.8 294.2 77.12C291.64 78.44 289.06 79.1 286.46 79.1Z" fill="#63A9E6"/>
<defs>
<filter id="filter0_d_38_8" x="13.2002" y="28" width="38.9648" height="42.375" filterUnits="userSpaceOnUse" color-interpolation-filters="sRGB">
<feFlood flood-opacity="0" result="BackgroundImageFix"/>
<feColorMatrix in="SourceAlpha" type="matrix" values="0 0 0 0 0 0 0 0 0 0 0 0 0 0 0 0 0 0 127 0" result="hardAlpha"/>
<feOffset dy="4"/>
<feGaussianBlur stdDeviation="2"/>
<feComposite in2="hardAlpha" operator="out"/>
<feColorMatrix type="matrix" values="0 0 0 0 0 0 0 0 0 0 0 0 0 0 0 0 0 0 0.25 0"/>
<feBlend mode="normal" in2="BackgroundImageFix" result="effect1_dropShadow_38_8"/>
<feBlend mode="normal" in="SourceGraphic" in2="effect1_dropShadow_38_8" result="shape"/>
</filter>
</defs>
</svg>
