<svg width="258" height="135" viewBox="0 0 258 135" fill="none" xmlns="http://www.w3.org/2000/svg">
  <defs>
    <linearGradient id="bg" x1="0" y1="0" x2="258" y2="135" gradientUnits="userSpaceOnUse">
      <stop stop-color="#F6FBFF"/>
      <stop offset="1" stop-color="#EAF4FF"/>
    </linearGradient>
    <linearGradient id="bar" x1="0" y1="20" x2="0" y2="104" gradientUnits="userSpaceOnUse">
      <stop stop-color="#7CC3FF"/>
      <stop offset="1" stop-color="#9DD4FF"/>
    </linearGradient>
  </defs>

  <rect x="0.5" y="0.5" width="257" height="134" rx="16" fill="url(#bg)" stroke="#D2E8FF"/>

  <text x="18" y="25" fill="#6AA8DC" font-size="11" font-family="Pretendard, sans-serif" font-weight="600">Survey Chart Preview</text>

  <rect x="18" y="32" width="222" height="1" fill="#D8ECFF"/>

  <rect x="30" y="104" width="18" height="10" rx="4" fill="url(#bar)"/>
  <rect x="60" y="84" width="18" height="30" rx="4" fill="url(#bar)"/>
  <rect x="90" y="68" width="18" height="46" rx="4" fill="url(#bar)"/>
  <rect x="120" y="54" width="18" height="60" rx="4" fill="url(#bar)"/>
  <rect x="150" y="74" width="18" height="40" rx="4" fill="url(#bar)"/>
  <rect x="180" y="62" width="18" height="52" rx="4" fill="url(#bar)"/>
  <rect x="210" y="90" width="18" height="24" rx="4" fill="url(#bar)"/>

  <path d="M30 74C40 67 52 65 60 66C69 67 80 74 90 72C100 70 110 58 120 59C130 60 142 72 150 71C159 70 169 61 180 62C190 63 200 73 210 72" stroke="#6AB9FF" stroke-width="2" stroke-linecap="round"/>

  <circle cx="60" cy="66" r="2.5" fill="#6AB9FF"/>
  <circle cx="90" cy="72" r="2.5" fill="#6AB9FF"/>
  <circle cx="120" cy="59" r="2.5" fill="#6AB9FF"/>
  <circle cx="150" cy="71" r="2.5" fill="#6AB9FF"/>
  <circle cx="180" cy="62" r="2.5" fill="#6AB9FF"/>
</svg>
