<svg width="100" height="100" viewBox="0 0 100 100" fill="none" xmlns="http://www.w3.org/2000/svg">
<g clip-path="url(#clip0_111_17)">
<path d="M80.3375 0.9125C79.7515 0.326653 78.9568 -0.00245767 78.1281 -0.00245767C77.2995 -0.00245767 76.5048 0.326653 75.9188 0.9125L65.625 11.2063L88.7938 34.375L99.0875 24.0875C99.3785 23.7972 99.6094 23.4524 99.767 23.0727C99.9245 22.6931 100.006 22.286 100.006 21.875C100.006 21.464 99.9245 21.0569 99.767 20.6773C99.6094 20.2976 99.3785 19.9528 99.0875 19.6625L80.3375 0.9125ZM84.375 38.7937L61.2063 15.625L20.5813 56.25H21.875C22.7038 56.25 23.4987 56.5792 24.0847 57.1653C24.6708 57.7513 25 58.5462 25 59.375V62.5H28.125C28.9538 62.5 29.7487 62.8292 30.3347 63.4153C30.9208 64.0013 31.25 64.7962 31.25 65.625V68.75H34.375C35.2038 68.75 35.9987 69.0792 36.5847 69.6653C37.1708 70.2513 37.5 71.0462 37.5 71.875V75H40.625C41.4538 75 42.2487 75.3292 42.8347 75.9153C43.4208 76.5013 43.75 77.2962 43.75 78.125V79.4187L84.375 38.7937ZM37.7 85.4687C37.5685 85.1191 37.5007 84.7486 37.5 84.375V81.25H34.375C33.5462 81.25 32.7513 80.9208 32.1653 80.3347C31.5792 79.7487 31.25 78.9538 31.25 78.125V75H28.125C27.2962 75 26.5013 74.6708 25.9153 74.0847C25.3292 73.4987 25 72.7038 25 71.875V68.75H21.875C21.0462 68.75 20.2513 68.4208 19.6653 67.8347C19.0792 67.2487 18.75 66.4538 18.75 65.625V62.5H15.625C15.2514 62.4992 14.8809 62.4315 14.5313 62.3L13.4125 63.4125C13.1147 63.7124 12.8808 64.0696 12.725 64.4625L0.225 95.7125C-0.00231669 96.2804 -0.0579636 96.9025 0.064958 97.5018C0.18788 98.101 0.483964 98.651 0.916504 99.0835C1.34905 99.516 1.89902 99.8121 2.49825 99.935C3.09747 100.058 3.7196 100.002 4.2875 99.775L35.5375 87.275C35.9304 87.1192 36.2876 86.8853 36.5875 86.5875L37.7 85.4687Z" fill="#767676"/>
</g>
<defs>
<clipPath id="clip0_111_17">
<rect width="100" height="100" fill="white"/>
</clipPath>
</defs>
</svg>
