<svg width="95" height="42" viewBox="0 0 95 42" fill="none" xmlns="http://www.w3.org/2000/svg">
<rect width="95" height="42" rx="8" fill="black"/>
<path d="M31.375 14.2656V19.6406H33.5469V21.1094H31.375V28.3906H29.6406V14.2656H31.375ZM22.5312 15.4219V18.9531H25.8594V15.4219H27.5938V25.0781H20.8125V15.4219H22.5312ZM22.5312 23.6562H25.8594V20.3125H22.5312V23.6562ZM47.0469 25.3125V26.75H34.1406V25.3125H39.7031V23.0156H35.6719V18.3906H43.7969V16.6406H35.6406V15.2344H45.5156V19.7656H37.4062V21.5938H45.8438V23.0156H41.4219V25.3125H47.0469ZM59.0312 14.2656V19.7812H61.125V21.2344H59.0312V28.3594H57.2969V14.2656H59.0312ZM55.2969 15.7344C55.2969 19.8906 53.5781 23.5312 48.875 25.8438L47.8906 24.5C51.3281 22.7891 53.1875 20.3828 53.5469 17.1719H48.6562V15.7344H55.2969ZM73.5938 14.2656V28.3906H71.8438V14.2656H73.5938ZM69.375 15.7656C69.375 19.9688 67.75 23.5469 62.7969 25.8906L61.8906 24.5C65.5859 22.7422 67.3047 20.3516 67.6094 17.1406H62.6094V15.7656H69.375Z" fill="white"/>
</svg>
