<svg width="260" height="102" viewBox="0 0 260 102" fill="none" xmlns="http://www.w3.org/2000/svg">
<g filter="url(#filter0_d_42_21)">
<rect x="20" y="20" width="200" height="42" rx="8" fill="white"/>
</g>
<path d="M106.867 36.9688H102.164V43.5469C103.32 43.5365 104.318 43.5 105.156 43.4375C105.995 43.375 106.836 43.2656 107.68 43.1094L107.867 44.5156C106.924 44.7031 105.987 44.8281 105.055 44.8906C104.122 44.9531 102.951 44.9844 101.539 44.9844H100.414V35.5469H106.867V36.9688ZM111.586 48.4062H109.852V40.6562H106.117V39.2344H109.852V34.2656H111.586V48.4062ZM126.461 46.6875H113.555V45.2656H119.117V42.5156H114.977V35.2031H116.711V37.5156H123.258V35.2031H124.992V42.5156H120.836V45.2656H126.461V46.6875ZM123.258 41.1094V38.9062H116.711V41.1094H123.258ZM139.18 48.3906H137.43V34.2656H139.18V48.3906ZM134.961 35.7656C134.961 38.0104 134.453 39.9818 133.438 41.6797C132.422 43.3724 130.737 44.776 128.383 45.8906L127.477 44.5C129.294 43.6354 130.661 42.6016 131.578 41.3984C132.5 40.1901 133.039 38.7708 133.195 37.1406H128.195V35.7656H134.961Z" fill="black"/>
<defs>
<filter id="filter0_d_42_21" x="0" y="0" width="260" height="102" filterUnits="userSpaceOnUse" color-interpolation-filters="sRGB">
<feFlood flood-opacity="0" result="BackgroundImageFix"/>
<feColorMatrix in="SourceAlpha" type="matrix" values="0 0 0 0 0 0 0 0 0 0 0 0 0 0 0 0 0 0 127 0" result="hardAlpha"/>
<feOffset dx="10" dy="10"/>
<feGaussianBlur stdDeviation="15"/>
<feComposite in2="hardAlpha" operator="out"/>
<feColorMatrix type="matrix" values="0 0 0 0 0 0 0 0 0 0 0 0 0 0 0 0 0 0 0.06 0"/>
<feBlend mode="normal" in2="BackgroundImageFix" result="effect1_dropShadow_42_21"/>
<feBlend mode="normal" in="SourceGraphic" in2="effect1_dropShadow_42_21" result="shape"/>
</filter>
</defs>
</svg>
